<?xml version="1.0" encoding="utf-8"?>
<!-- Svg Vector Icons : http://www.onlinewebfonts.com/icon -->
<!DOCTYPE svg PUBLIC "-//W3C//DTD SVG 1.1//EN" "http://www.w3.org/Graphics/SVG/1.1/DTD/svg11.dtd">
<svg version="1.1" xmlns="http://www.w3.org/2000/svg" xmlns:xlink="http://www.w3.org/1999/xlink" x="0px" y="0px" viewBox="0 0 1000 1000" enable-background="new 0 0 1000 1000" xml:space="preserve">
<metadata> Svg Vector Icons : http://www.onlinewebfonts.com/icon </metadata>
<g><path d="M732.7,622c0,0-49,79.6-232.7,79.6S267.2,622,267.2,622C101.9,622,10,769,10,873.1c0,30.6,12.2,73.5,67.4,73.5c36.7,0,808.5,0,845.2,0c55.1,0,67.4-42.9,67.4-73.5C990,769,898.1,622,732.7,622z"/><path d="M248.4,333.7C248.6,178.6,361.3,53.1,500,53.4c138.7,0.3,251,126.2,250.7,281.3S637.8,615.2,499.1,614.9c-138.4-0.3-250.5-125.6-250.7-280.3V333.7z"/></g>
</svg>