<svg xmlns="http://www.w3.org/2000/svg" width="180.845" height="112.656" viewBox="1582.836 108.593 180.845 112.656"><g data-name="CompositeLayer"><path d="M1634.152 147.974c.692-1.976.692-3.261-.098-3.755-.693-.493-1.186-.493-1.581-.197-.396.395-.692.297-.593-.494.099-.692.494-1.284 1.087-1.779l2.074-.79c.89 0 1.977.395 3.261 1.186 1.975 1.383 3.062 2.865 3.261 4.545.098 1.284-.593 3.655-1.977 7.113-1.68 3.755-3.161 7.015-4.742 9.386l4.446 8.201c5.038 8.496 8.299 12.844 9.484 12.844.297 0 .692-.692 1.186-2.174.89-2.371 1.384-5.433 1.482-9.287l.198-.296.297.493 1.087 10.177c0 1.976.098 3.557.493 4.94l.889 5.237c.099.988 0 1.581-.297 1.778-.394.296-1.185 0-2.568-.79-6.817-3.755-13.635-12.548-20.352-26.183-4.645 5.039-10.079 7.509-16.006 7.114-.494 0-.692-.198-.791-.494 0-.296.198-.494.692-.692 5.532-2.667 9.979-7.015 13.14-12.646-3.359-7.311-5.928-13.734-7.706-19.365l-8.399 10.869c3.854.197 6.719.987 8.399 2.371.494.394.691.888.691 1.382l-.691 1.68c-1.581 2.569-3.063 5.632-4.545 9.09-1.779 4.347-3.458 7.311-4.841 9.189-2.767 3.161-4.743 4.742-5.929 4.742-.493 0-.987-.396-1.481-1.087-3.26-4.841-5.237-9.386-5.83-13.338-.692.494-1.185.395-1.679-.494l-1.186-3.063c-.988-2.865.099-5.039 3.36-6.126 6.916-4.051 13.239-11.065 18.475-21.143-3.26 2.174-7.41 5.137-12.449 9.09-.691.494-1.581.494-2.865.197-3.655-1.086-5.928-2.074-6.422-2.667l-.297 2.272c-2.272 6.818-2.964 12.844-2.173 18.179l.198 7.114c-.198 2.865-.79 5.335-1.779 7.509-.79 2.074-1.581 3.359-2.47 3.754-.692.395-1.285.494-1.679.297-.396-.099-.89-.79-1.581-2.174-1.877-3.261-2.668-8.102-2.47-14.523-.1-.198 0-.297.197-.198.494 0 .79.296.79.593.297 2.173.593 3.557 1.087 4.248l.989.79.79-1.58c.69-3.952.791-8.398.098-13.536v-.396c-.691-7.607-.197-13.733 1.285-18.08l1.58-5.039.396-1.185c.297-.099.79.494 1.383 1.581 1.779 3.359 3.063 6.224 3.459 8.595l.691-.395c3.161-1.186 5.829-2.767 8.003-4.742a49.919 49.919 0 0 1 12.547-8.2l-1.086-4.645c-2.965-10.176-5.138-13.732-6.62-10.769-.593 1.087-.889 1.186-.889.495v-2.174c.198-.988.692-1.581 1.482-1.877.79-.198 2.174.099 4.15.889 2.074.79 3.655 1.778 4.939 3.062 1.779 1.779 2.569 3.458 2.569 5.138 0 1.482.198 3.359.692 5.928 3.161.198 5.829.988 7.805 2.273 1.581.889 2.47 1.877 2.668 3.161.197 2.174-.593 3.557-2.371 4.149-1.384.396-3.162 1.878-5.039 3.953 2.174 6.62 4.446 12.547 6.817 17.981l2.865-7.212Zm-35.568 18.476c1.877 2.272 4.248 3.853 6.916 4.94l.988.296.889-.988c1.581-3.161 2.767-6.324 3.458-9.682.198-.593.099-1.087-.296-1.185l-1.384.296c-3.655 1.581-7.212 3.754-10.571 6.323Zm30.232-48.314c-.79-.691-1.185-1.383-1.085-2.075.098-.593.592-1.086 1.284-1.58 1.087-.593 2.469-.89 4.149-.89 3.952.099 6.62.692 7.806 1.779.888.592 1.679 2.371 2.37 5.137.692 2.371.594 3.755-.197 4.249-1.087.593-3.26-.198-6.521-2.173l-5.433-3.064-2.373-1.383Z" fill="#2d2d2d" fill-rule="evenodd" data-name="Path 137"/><g data-name="Group 76"><g data-name="Group 75"><path d="M1673.22 142.723c-.232-.465-.604-.79-1.022-1.022-.419-.233-.837-.28-1.162-.093-.604.372-.79.185-.557-.558.232-.883.743-1.534 1.487-1.859.418-.186 1.068-.186 1.952 0 .511.14 1.068.511 1.673 1.022l.093.093c1.07.977 1.441 3.067 1.116 6.182 1.719 1.999 3.3 2.882 4.6 2.742 1.907-.558 3.533-.372 4.742.604.557.418.975.976 1.208 1.766.232.977-.279 1.488-1.58 1.72-4.509.837-8.32 2.371-11.387 4.601l-1.395 4.602c-1.07 2.835-1.952 5.392-2.509 7.576-.93 2.417-2.51 4.09-4.649 4.88-2.835 1.023-5.345.744-7.343-.837l-.093-.278c.046-.14.093-.233.279-.186 1.069.139 2.045.093 2.975-.186 1.162-.325 2.137-.744 2.835-1.208 1.208-.977 2.974-4.649 5.251-10.923-2.09 1.441-3.578 2.092-4.369 1.859-1.161-.557-2.463-1.394-3.764-2.602-.79-.698-.79-1.162.093-1.302.929-.186 1.813-.511 2.51-.976 2.045-1.487 4.601-2.974 7.669-4.555 1.533-6.182 1.998-9.9 1.348-11.062Zm8.135 22.96c.975.372 2.09.884 3.207 1.581 4.089 1.998 6.414 3.997 6.924 5.856.418 2.603.465 3.997.047 4.183-.976.558-3.626-1.347-7.716-5.624-3.625-3.346-6.692-5.206-9.156-5.437-.836-.14-1.255-.372-1.208-.605-.047-.279.418-.465 1.301-.511 2.092-.465 4.323-.279 6.601.557Zm-4.788-17.708-.093.837-.511 2.835c1.068-.511 1.673-.93 1.766-1.208l.093-.605-1.255-1.859Z" fill="#2d2d2d" fill-rule="evenodd" data-name="Path 138"/></g></g><g data-name="Group 78"><g data-name="Group 77"><path d="M1704.084 169.964c-.165-.033-.23-.065-.264-.164l.428-.329a.774.774 0 0 1 .657-.098l.788.427c.624.624.887 1.117.855 1.412-.46 3.384-.592 5.224-.395 5.552l.395.264c.361.032.755.032 1.149-.067-.262-.624-.296-1.05-.132-1.149l.92-.953c-.164.066-.393 0-.656-.164l-1.085-.855-.196-.361.361-.164a4.886 4.886 0 0 0 1.872-.46l1.019-.394.164-.558-2.069.788c-.198.164-.395.132-.494-.033-.131-.23-.065-.394.164-.559.395-.097.756-.229 1.052-.46.296-.196.427-.328.395-.427l-1.019-.229c-.23.065-.361-.033-.394-.231-.263-.197-.296-.361-.131-.525-.099-.723.032-1.084.361-1.019.099-.033.36-.426.723-1.084l-1.775.494c-.164.065-.394 0-.624-.165l-1.05-.92-.165-.394c.033-.098.131-.132.361-.132.821-.032 1.544-.164 2.234-.426.591-.263 1.446-.494 2.53-.723 1.018-.231 1.774-.296 2.332-.263.657.032 1.085.23 1.282.559a.959.959 0 0 1 .131.887l-.296.13c-1.248.099-2.267.263-3.088.46h-.032l.13.165c.296.394.263.822-.098 1.183l-.328.328c.887-.296 1.674-.46 2.299-.525.559-.067.887.065 1.051.393l.362.855c.033.197-.066.296-.296.329a2.425 2.425 0 0 0-1.347.591l.23.296-.131.689.592-.065c.558 0 .985.164 1.214.46.198.229.263.558.198.821-.033.098-.131.132-.296.132-1.478.196-2.563.46-3.219.755l-.23.394h.065c1.15.033 1.873.197 2.234.493.23.164.427.657.658 1.478l.13-.099c.23-.065.428-.032.658.099.46.264.821.657 1.117 1.117.164.263.229.46.197.624-.033.165-.361.197-.953.099-2.595-.394-5.026-.263-7.194.394-1.118.296-1.939.296-2.366 0-.131-.065-.295-.493-.525-1.281l-.1-1.052c.034-2.069.034-3.777-.065-5.157-.065-.756-.164-1.15-.295-1.183Zm12.615 11.597.492-.065c1.906 0 3.187.361 3.713 1.116.131.23.197.526.164.854-.098 1.019-.164 3.22-.164 6.571 0 1.413-.526 2.694-1.413 3.778l-.328.197-.23-.164-.723-.625c-.525-.361-.985-.853-1.412-1.38-1.709-.065-4.238.264-7.557.92l-.426-.098c-.034.394-.132.591-.231.625-.131.032-.361-.231-.723-.756-.558-.657-.788-1.216-.689-1.708.131-.888.197-2.333.197-4.337 0-1.61.46-2.957 1.446-3.943.098-.164.197-.197.262-.13a.243.243 0 0 1 0 .294c-.065.099-.132.592-.164 1.479.427-.492 1.183-.952 2.07-1.347l-.165-.953-.098-.624-2.989.592c-.166.032-.395-.066-.658-.296-.558-.493-.886-.887-1.052-1.149-.163-.231-.196-.395-.13-.494l.426-.098a13.371 13.371 0 0 0 4.764-.46c1.281-.395 3.088-.69 5.421-.92 2.201-.23 3.876-.23 4.993-.066.624.099 1.084.362 1.281.756a.671.671 0 0 1 .132.526l-.098.427-.296.098c-2.497-.033-4.533.033-6.243.231.33.295.461.689.428 1.149Zm-5.75 2.891a2.85 2.85 0 0 0-2.036.394c.13.92.099 2.989-.098 6.176.624-.032 1.248-.098 1.84-.263l1.51-.295.361-.23c.296-.197.428-.361.395-.46-.099-.099-.395-.131-.855-.099-.525.066-1.083-.032-1.642-.262-.591-.296-.69-.624-.263-1.019l2.333-.723c.362-.262.558-.426.526-.525-.164-.099-.46-.132-.92-.033-.526.098-1.117.033-1.708-.164-.691-.23-.822-.591-.395-1.019l.855-.263v-.459l.097-.756Zm1.315-8.016c-.362-.328-1.019-.756-1.971-1.216l-.165-.098-1.084 1.577c1.512-.296 2.661-.362 3.22-.263Zm.23 4.501v1.281c.887-.296 1.675-.46 2.234-.46l-.395-1.15-1.839.329Zm1.741 2.858c-.986.197-1.545.427-1.741.591v.887l1.643-.361c-.067-.329-.033-.69.098-1.117Zm1.643.854h.295c.526 0 .854.132.953.428l.23.853c.033.164-.066.263-.263.296l-1.084.493-1.61.822 1.544-.132c.493 0 .79.132.887.426l.197.789c.034.165-.033.263-.229.295l-.92.428-1.84.92c1.051-.099 1.872-.099 2.496 0 .527.032.92.263 1.151.69h.328l.262-.099c.132-.099.231-.263.263-.525.527-3.712.527-5.98 0-6.768-.164-.328-.459-.46-.853-.427l-1.414.23-.393 1.281Zm6.504-13.995c.724.428 1.117.854 1.117 1.182l-.229.33-.658 1.149-.953 1.445.559.329 1.15.887c1.05.427 1.84 1.183 2.267 2.234.296.854.328 1.478.131 1.807-.066.099-.23.066-.492-.132-1.151-.722-1.906-1.281-2.267-1.708a18.109 18.109 0 0 0-2.432-2.004l-.657.624c-.887.658-1.741.855-2.595.658-.722-.132-1.577-.855-2.595-2.004v-.198c.033-.065.098-.065.197 0l1.807.591c.69.165 1.445-.065 2.135-.689-2.135-1.216-3.417-1.741-3.745-1.577l-.69.46c-.197.23-.328.262-.362.098l.067-.393c.525-.724 1.281-1.052 2.168-.953-.034-.329-.034-.592.065-.822l.231-.394 2.004-.164 2.168-1.84-.592-.723c-.164-.197-.197-.756-.164-1.676l-.131-.098-1.577-.263-.164-.099.098-.164 1.15-.886c.756-.691 1.346-1.019 1.675-.986l.79.198c.721.689.918 1.412.754 2.069-.394.723-.558 1.216-.46 1.38.164.098.362.131.624.098.231-.033.526.033.887.263.361.197.527.427.592.723-.099.328-.231.493-.395.493s-.722.229-1.576.689l.098.066Zm-6.34-4.172c.164-.099.394 0 .723.229.821.723 1.281 1.38 1.346 1.84.034.231-.46 1.052-1.412 2.399-.428.689-.789.788-1.051.296-.494-.658-.427-1.578.197-2.596.164-.361.263-.723.197-1.051l-.132-.657c-.032-.197 0-.361.132-.46Zm2.398 6.734 1.577.691.624-.92v-.296c-.066-.099-.197-.099-.394 0l-1.807.525Z" fill="#2d2d2d" fill-rule="evenodd" data-name="Path 139"/><path d="M1742.712 191.515c-.164.033-.394-.131-.821-.493-1.708-1.643-2.3-3.777-1.84-6.373.296-1.281.46-3.285.526-6.012.099-2.333.23-4.073.394-5.19.098-.559.23-.855.493-.855.164 0 .296.132.328.395.099.328.329.722.657 1.149.362.789.887 1.38 1.479 1.775.689.426 1.051.46 1.117.065.131-.263.065-.624-.164-1.018-.657-1.249-.953-2.399-.82-3.416v-.395c-.068-.065-.232-.099-.528-.065a6.532 6.532 0 0 1-2.069-.132c-.525-.132-.592-.328-.197-.559a10.17 10.17 0 0 0 2.464-2.562c.262-.658.985-.952 2.037-.887.854.065 1.38.263 1.577.591.229.427.263.789.164 1.117-.723 1.741-1.084 2.957-1.084 3.614l.492 2.3v-.066c.493-.822.821-1.544.953-2.037l.328-1.478c.132-.329.362-.231.723.328l.394.756c.625-.525 2.334-1.183 5.06-1.939l-1.117-.229-1.609-.165c-.231-.032-.33-.066-.296-.131 0-.065.065-.132.164-.132.69-.525 1.084-.952 1.084-1.182-.066-.591-.69-1.314-1.939-2.037-.131-.295-.098-.427.165-.394 1.38 0 2.496.197 3.252.624.788.46 1.315 1.051 1.511 1.741.165.559.165 1.051.033 1.479l-.065.098.92-.23 1.576-.296c.789-.196 1.938.296 3.45 1.478.394.33.591.592.492.79-.032.229-.328.426-.788.59-.525.198-1.149.559-1.97 1.151a25.535 25.535 0 0 1-2.892 1.675l.098.098c.164.263.164.493.034.723-.132.23-.329.361-.592.46-.756.263-1.38.592-1.905.985-.559.428-1.315.789-2.235 1.117-1.084.395-1.937.855-2.562 1.479l-.263.164v-.066c0-.591.559-1.248 1.741-1.97.197-.132.329-.264.329-.363l-1.38-1.773c-.394-.559-.361-.756.033-.624.854.361 2.102.065 3.713-.888.23-.196.558-.295.985-.295.46 0 .854.099 1.216.295.952-.689 1.708-1.477 2.102-2.201.23-.427.296-.755.164-.919-.033-.066-.23-.098-.493-.066-1.477.132-2.857.592-4.106 1.281-.591.329-1.019.525-1.183.525-1.248 0-2.135.296-2.661.789l-.492 1.479-.953 2.036c-.328.855-.624 1.019-.822.493l-.328-1.117c-.296 1.117-.756 2.103-1.38 2.957-.164.23-.329.361-.525.361-.231 0-.592-.558-1.052-1.609a19.726 19.726 0 0 1-1.183-2.366 40.622 40.622 0 0 1-.558 4.862c-.427 1.905-.689 3.614-.788 5.125-.067 1.117-.033 1.676.099 1.708.13 0 .294-.164.459-.427.986-1.806 1.675-3.909 1.971-6.274l.099-.164.132.229c.065 2.07-.231 5.454-.953 10.152-.099.23-.231.361-.395.361Zm9.725-1.38v-.032c-.526-1.281-.23-3.056.985-5.322l.92-2.169c.098-.361.065-.526-.164-.558l-.296.295c-1.84 2.201-4.468 4.501-7.72 6.866l-.329.099c-.099-.032-.131-.164-.131-.395.066-1.576.427-2.397 1.051-2.397.788-.197 1.972-1.216 3.581-3.023l.099-.197h-.231l-.788-.262c-.558-.362-1.182-.986-1.774-1.775-.197-.296-.263-.492-.164-.591.098-.098.394-.132.854-.098.492.032 1.084-.034 1.774-.164h.131c2.3-.559 3.614-1.282 3.943-2.202l.262-.361.69.066c.854.13 1.545.689 2.07 1.51.099.231.033.46-.197.723a1.51 1.51 0 0 1-.723.526l-.558.328h.065c.888.625 1.117 1.38.624 2.235-1.741 2.825-2.496 4.73-2.201 5.585.395.624.953.919 1.741.853 1.972-.131 3.68-.46 5.093-.92.361-.098.559-.229.591-.393.263-.165.558-1.479.854-3.877 0-.099.034-.132.131-.099.099 0 .132.033.132.132.065 1.511.328 3.285.855 5.321.098.329.098.559 0 .724-.034.164-.198.328-.559.459-1.939.724-4.829.855-8.542.428-1.019-.132-1.708-.592-2.069-1.315Z" fill="#2d2d2d" fill-rule="evenodd" data-name="Path 140"/></g></g><g data-name="Group 80"><g data-name="Group 79"><path d="M1642.06 206.511h3.6l4.527 8.272-.129-1.547v-6.725h3.563v14.341h-3.658l-4.434-8.143.094 1.784v6.359h-3.563v-14.341Z" fill="#2d2d2d" fill-rule="evenodd" data-name="Path 141"/><path d="M1667.65 217.468v3.405c-.752.222-1.427.334-2.023.334-2.062 0-3.734-.708-5.016-2.123-1.282-1.414-1.922-3.274-1.922-5.58 0-2.141.646-3.908 1.94-5.301 1.294-1.393 2.929-2.089 4.904-2.089.769 0 1.474.093 2.117.279v3.416a6.653 6.653 0 0 0-1.928-.311c-.926 0-1.695.386-2.306 1.16-.61.773-.917 1.758-.917 2.954 0 1.289.308 2.307.923 3.056.615.749 1.436 1.123 2.464 1.123.502 0 1.09-.108 1.764-.323Z" fill="#2d2d2d" fill-rule="evenodd" data-name="Path 142"/><path d="M1672.363 206.511h3.564v6.746h.059l3.364-6.746h3.74l-3.647 7.326 3.494 7.015h-3.917l-3.034-5.962h-.059v5.962h-3.564v-14.341Z" fill="#2d2d2d" fill-rule="evenodd" data-name="Path 143"/><path d="M1687.181 206.511h3.657v10.098c0 .473.138.847.412 1.122.274.276.643.414 1.106.414.478 0 .856-.147 1.134-.44.279-.294.418-.699.418-1.214v-9.98h3.634v9.41c0 1.283-.184 2.31-.553 3.083-.368.774-.911 1.341-1.629 1.704-.717.361-1.718.541-3.004.541-1.898 0-3.235-.444-4.011-1.332-.777-.887-1.164-2.388-1.164-4.5v-8.906Z" fill="#2d2d2d" fill-rule="evenodd" data-name="Path 144"/><path d="M1703.173 206.511h3.563v5.318h3.164v-5.318h3.564v14.341h-3.564v-5.962h-3.164v5.962h-3.563v-14.341Z" fill="#2d2d2d" fill-rule="evenodd" data-name="Path 145"/></g></g></g></svg>