<svg xmlns="http://www.w3.org/2000/svg" width="27.328" height="28.557" viewBox="913.206 578.111 27.328 28.557"><g data-name="Group 124"><path d="m929.348 581.611 5.892 15.705-10.551-.765-1.533.765 1.887 4.657-4.479 1.769-1.769-4.658s-2.947 1.031-3.711-.236c-.768-1.266-1.711-4.096-1.711-4.096s-.914-1.723 1.533-2.672c2.446-.953 6.717-2.486 6.717-2.486l.533-.295 7.192-7.688Z" fill-rule="evenodd" fill="url(&quot;#a&quot;)" data-name="Path 233"/><path d="m929.996 581 6.424 16.914 3.568.236s.942.061.352-1.562c-.59-1.619-7.043-18.094-7.043-18.094s-.445-.918-1.395.088c-.951 1.006-1.959 2.135-1.959 2.135v.166l.053.117Z" fill-rule="evenodd" fill="url(&quot;#b&quot;)" data-name="Path 234"/><path d="M0 0h4.828v2.647H0V0z" fill-rule="evenodd" fill="url(&quot;#c&quot;)" transform="rotate(-22.051 2010.895 -2060.716)" data-name="Rectangle 121"/></g><defs><linearGradient x1="0" y1=".5" x2="1" y2=".5" id="a"><stop stop-color="#ef720b" offset=".541"/><stop stop-color="#f9b342" offset="1"/></linearGradient><linearGradient x1="0" y1=".5" x2="1" y2=".5" id="b"><stop stop-color="#ef720b" offset=".541"/><stop stop-color="#f9b342" offset="1"/></linearGradient><linearGradient x1="-.066" y1=".5" x2="1.066" y2=".5" id="c"><stop stop-color="#ef720b" offset=".541"/><stop stop-color="#f9b342" offset="1"/></linearGradient></defs></svg>