<svg xmlns="http://www.w3.org/2000/svg" width="23.269" height="24.344" viewBox="428.064 579.588 23.269 24.344"><g data-name="Group 130"><path d="M438.505 600.471c-5.754 0-10.441-4.684-10.441-10.442 0-5.757 4.687-10.441 10.441-10.441 5.762 0 10.443 4.684 10.443 10.441 0 5.758-4.681 10.442-10.443 10.442Zm0-18.723c-4.566 0-8.279 3.715-8.279 8.281 0 4.567 3.713 8.281 8.279 8.281 4.568 0 8.281-3.714 8.281-8.281 0-4.566-3.713-8.281-8.281-8.281Z" fill-rule="evenodd" fill="url(&quot;#a&quot;)" data-name="Path 248"/><path d="m449.802 603.932-5.942-5.942 1.532-1.521 5.941 5.94-1.531 1.523Z" fill-rule="evenodd" fill="url(&quot;#b&quot;)" data-name="Path 249"/></g><defs><linearGradient x1="0" y1=".5" x2="1" y2=".5" id="a"><stop stop-color="#ef720b" offset=".541"/><stop stop-color="#f9b342" offset="1"/></linearGradient><linearGradient x1="0" y1=".5" x2="1" y2=".5" id="b"><stop stop-color="#ef720b" offset=".541"/><stop stop-color="#f9b342" offset="1"/></linearGradient></defs></svg>