<svg xmlns="http://www.w3.org/2000/svg" width="119.49" height="98.316" viewBox="500.416 169.008 119.49 98.316"><path d="M548.52 204.297c.885-.234 2.957-.787 5.537-1.47 1.912-.457 3.887-.983 5.82-1.539l.385-.104c8.531-2.254 13.59-3.578 15.043-3.936.347-.011.652 0 .914.028l23.726 15.383 4.334 3.136c.096.067.19.131.291.182.244.156.494.291.739.41a9.025 9.025 0 0 0 1.474.608c.391.115.803.207 1.264.279a8.887 8.887 0 0 0 3.037-.045c5.037-.516 8.822-4.674 8.822-9.742 0-2.598-1.021-5.041-2.883-6.899a9.894 9.894 0 0 0-2.273-1.712l-39.533-28.665a2.753 2.753 0 0 0-.822-.41l-.377-.146c-1.997-.692-3.848-.815-5.817-.434-.06.012-.115.024-.172.039l-.174.045c-25.532 6.5-43.005 10.912-51.931 13.112a2.176 2.176 0 0 0-.291.091l-.763.278c-4.202 1.048-7.536 1.627-9.397 1.627a2.822 2.822 0 0 0-2.822 2.822v1.383a2.516 2.516 0 0 0-.033.478l.033 18.395a2.827 2.827 0 0 0 2.785 3.26c5.738 0 9.678 2.925 14.242 6.312 1.014.752 2.029 1.506 3.08 2.238 4.334 3.026 9.826 6.117 17.713 6.117 3.27 0 5.922-.031 8.028-.095h6.636c.102.01.207.017.281.017h15.143a3.696 3.696 0 0 1 2.918 3.625c0 1.248-.62 2.377-1.67 3.065-.692.187-2.092.556-3.905 1.039l-1.644.437c-1.912.461-3.889.981-5.813 1.537l-.39.104c-10.34 2.734-13.937 3.666-15.039 3.936a6.13 6.13 0 0 1-.918-.032l-23.724-15.381-4.334-3.136a2.709 2.709 0 0 0-.319-.196 9.324 9.324 0 0 0-.722-.4 8.947 8.947 0 0 0-1.467-.602 8.407 8.407 0 0 0-1.254-.273c-1.188-.184-2.082-.139-3.039.039-5.043.518-8.823 4.676-8.823 9.744 0 2.584 1.01 5.018 2.854 6.869.039.045.084.092.127.133.668.647 1.4 1.188 2.176 1.61l39.531 28.661c.234.172.498.303.771.395l.299.115c.047.019.086.035.131.051 1.256.433 2.449.644 3.641.644.722 0 1.459-.076 2.314-.25l.203-.049c8.769-2.234 38.435-9.782 51.935-13.108.104-.03.207-.061.309-.098l.748-.274c4.186-1.048 7.518-1.628 9.391-1.628a2.827 2.827 0 0 0 2.828-2.825v-1.383c.021-.154.035-.314.031-.472l-.031-18.403a2.825 2.825 0 0 0-2.791-3.251c-5.738 0-9.678-2.926-14.237-6.309-1.015-.752-2.033-1.512-3.085-2.242-4.331-3.026-9.819-6.115-17.711-6.115-3.409 0-5.983.027-8.032.091h-6.634c-.1-.007-.207-.015-.286-.015h-15.134a3.7 3.7 0 0 1-2.922-3.627c0-1.233.635-2.385 1.678-3.069Zm23.375 15.385c.015-.07.027-.146.039-.219.08-.423.136-.857.136-1.306 0-.457-.052-.899-.133-1.332-.005-.035-.009-.073-.019-.108-.004-.019-.004-.045-.008-.064 2.072-.063 4.592-.096 7.94-.096 6.308 0 10.687 2.453 14.482 5.102 1.006.703 1.98 1.427 2.945 2.146 4.278 3.172 8.678 6.436 14.75 7.237v13.769l.02 1.662c-2.166.27-4.881.82-8.117 1.635-.096.023-.192.055-.287.086l-.752.279c-13.584 3.352-43.082 10.858-51.812 13.078l-.059.022c-.922.185-1.777.142-2.826-.211l-39.469-28.588a3.024 3.024 0 0 0-.375-.231 4.19 4.19 0 0 1-1.053-.779 4.081 4.081 0 0 1-1.24-2.918c0-2.17 1.647-3.947 3.828-4.135.112-.011.219-.027.326-.05.399-.08.811-.084 1.229-.016.154.02.31.051.457.094.154.049.334.125.553.236.123.063.25.123.357.197.031.02.061.039.092.057l4.23 3.057c.032.027.077.056.116.08l24.254 15.73c.261.17.556.297.867.369.929.231 1.974.307 3.199.243.164-.008.33-.032.488-.069 1.119-.262 6.172-1.58 15.445-4.039l.449-.119a144.109 144.109 0 0 1 5.698-1.506l1.705-.453c2.265-.6 3.877-1.029 4.279-1.133.223-.058.445-.146.648-.258 2.985-1.654 4.846-4.783 4.846-8.166 0-4.408-3.02-8.15-7.26-9.115.016-.057.02-.111.032-.168Zm-22.852-3.08c.153.024.303.035.457.035h15.264c.07.008.14.012.189.012a1.51 1.51 0 0 1 1.467 1.508 1.52 1.52 0 0 1-1.522 1.521l-16.482.004c-2.13.061-4.732.092-7.945.092-6.305 0-10.683-2.453-14.484-5.1a129.874 129.874 0 0 1-2.947-2.148c-4.278-3.172-8.674-6.436-14.745-7.234V191.52l-.023-1.666c2.162-.27 4.877-.814 8.113-1.629.104-.023.207-.057.307-.092l.734-.275c8.985-2.213 26.418-6.615 51.84-13.086l.097-.025a5.303 5.303 0 0 1 2.682.195l.176.072 37.699 27.328 1.67 1.217c.119.086.25.162.383.234.343.174.677.416 1 .723.017.016.027.031.045.047.802.791 1.248 1.83 1.248 2.924 0 2.17-1.651 3.943-3.832 4.133a2.291 2.291 0 0 0-.323.048 3.523 3.523 0 0 1-1.228.024 3.014 3.014 0 0 1-.461-.1 3.8 3.8 0 0 1-.567-.242 2.736 2.736 0 0 1-.419-.238l-4.239-3.065c-.039-.033-.08-.056-.119-.084l-24.258-15.722a2.662 2.662 0 0 0-.855-.371c-.926-.235-1.977-.313-3.207-.247-.168.008-.33.032-.494.073-1.098.254-6.151 1.574-15.447 4.035l-.443.119a135.583 135.583 0 0 1-5.696 1.506c-3.154.836-5.51 1.459-5.996 1.59-.223.06-.433.144-.635.256-2.99 1.65-4.851 4.777-4.851 8.164a9.334 9.334 0 0 0 7.847 9.236Z" fill="#fff" fill-rule="evenodd" data-name="路径 97"/></svg>