<svg xmlns="http://www.w3.org/2000/svg" width="64.936" height="53.428" viewBox="1589.212 249.828 64.936 53.428"><path d="m1615.353 269.005 3.01-.797a74.416 74.416 0 0 0 3.161-.837l.21-.057c4.636-1.225 7.384-1.944 8.175-2.137.188-.008.356 0 .497.013l12.894 8.36 2.354 1.705c.052.036.104.071.159.099.133.084.268.158.401.222.283.145.546.253.802.331.211.063.436.112.687.151.608.09 1.123.073 1.651-.023 2.736-.282 4.794-2.542 4.794-5.295a5.262 5.262 0 0 0-1.628-3.81 5.39 5.39 0 0 0-1.175-.87l-21.484-15.578a1.527 1.527 0 0 0-.446-.222l-.206-.08c-1.085-.376-2.091-.443-3.161-.236-.031.008-.062.014-.093.023l-.095.022c-13.875 3.534-23.371 5.932-28.22 7.127a1.243 1.243 0 0 0-.158.048l-.416.152c-2.284.571-4.094.885-5.106.885-.847 0-1.534.687-1.534 1.532v.752c-.013.085-.02.171-.019.26l.019 9.996c-.061.391.029.793.264 1.123.285.406.75.65 1.25.65 3.118 0 5.259 1.588 7.74 3.429.55.409 1.103.82 1.673 1.216 2.356 1.645 5.341 3.325 9.627 3.325 1.775 0 3.216-.016 4.362-.051h3.606c.055.005.113.008.154.008h8.228a2.01 2.01 0 0 1 1.586 1.97c0 .679-.337 1.293-.908 1.665-.376.104-1.136.304-2.121.565l-.895.239a72.314 72.314 0 0 0-3.158.835l-.212.056c-5.618 1.487-7.574 1.991-8.174 2.14-.186.005-.353 0-.498-.019l-12.892-8.357-2.356-1.705a1.302 1.302 0 0 0-.173-.106 4.997 4.997 0 0 0-.393-.218 4.608 4.608 0 0 0-1.477-.476 4.612 4.612 0 0 0-1.654.023 5.297 5.297 0 0 0-4.793 5.294 5.262 5.262 0 0 0 1.62 3.804c.362.352.761.646 1.183.875l21.481 15.576c.129.094.271.165.42.214l.162.063a5.983 5.983 0 0 0 2.05.378c.392 0 .793-.041 1.257-.135l.111-.027c4.765-1.214 20.887-5.316 28.224-7.124.055-.016.112-.031.168-.053l.406-.149c2.274-.57 4.086-.885 5.104-.885.846 0 1.535-.684 1.535-1.534v-.752c.013-.084.02-.171.017-.257l-.017-10.002a1.53 1.53 0 0 0-.271-1.126 1.53 1.53 0 0 0-1.246-.639c-3.116 0-5.258-1.591-7.735-3.43-.552-.408-1.105-.82-1.678-1.218-2.353-1.644-5.336-3.323-9.625-3.323-1.851 0-3.25.015-4.363.051h-3.607a1.77 1.77 0 0 0-.154-.009h-8.226a2.013 2.013 0 0 1-1.587-1.972c0-.668.345-1.295.912-1.668Zm12.703 8.362c.008-.038.015-.081.021-.118a3.88 3.88 0 0 0 .073-.711 3.89 3.89 0 0 0-.071-.723c-.004-.02-.005-.04-.01-.059-.003-.012-.003-.024-.005-.035 1.126-.035 2.496-.052 4.314-.052 3.429 0 5.809 1.333 7.872 2.772.546.383 1.075.775 1.6 1.166 2.325 1.725 4.715 3.499 8.014 3.932v7.484l.011.903c-1.177.147-2.652.446-4.41.888-.052.012-.105.031-.157.046l-.408.152c-7.381 1.821-23.412 5.901-28.157 7.109l-.032.01c-.501.102-.965.078-1.535-.114l-21.448-15.535a1.61 1.61 0 0 0-.204-.126 2.268 2.268 0 0 1-.531-.383l-.042-.04a2.218 2.218 0 0 1-.675-1.586c0-1.179.896-2.146 2.082-2.248a1.7 1.7 0 0 0 .176-.026c.217-.046.441-.047.668-.009a1.456 1.456 0 0 1 .549.178c.066.034.136.067.194.11.017.01.034.02.051.028l2.298 1.662c.018.016.042.03.063.043l13.179 8.549c.144.092.303.161.471.201.508.126 1.074.167 1.74.133.09-.006.18-.019.265-.037.608-.143 3.354-.86 8.394-2.196l.244-.065a77.016 77.016 0 0 1 3.096-.818l.927-.247c1.231-.326 2.106-.559 2.325-.614a1.78 1.78 0 0 0 .353-.141 5.089 5.089 0 0 0 2.632-4.439 5.06 5.06 0 0 0-3.945-4.953c.01-.031.011-.06.018-.091Zm-12.418-1.675c.082.014.164.02.249.02h8.294c.038.004.076.007.102.007.45.016.797.376.797.819a.825.825 0 0 1-.826.828l-8.958.001c-1.158.033-2.57.049-4.316.049-3.426 0-5.806-1.332-7.872-2.771a76.626 76.626 0 0 1-1.603-1.166c-2.323-1.724-4.713-3.498-8.012-3.933v-7.483l-.012-.906c1.174-.146 2.652-.443 4.409-.886a1.27 1.27 0 0 0 .166-.05l.4-.148c4.883-1.204 14.356-3.596 28.172-7.112l.052-.013a2.864 2.864 0 0 1 1.458.106l.095.039 20.487 14.849.908.663c.064.046.137.087.207.127.188.094.369.226.545.393l.023.026c.437.43.679.995.679 1.589 0 1.178-.897 2.142-2.083 2.246a1.215 1.215 0 0 0-.175.026 1.947 1.947 0 0 1-.919-.041 2.427 2.427 0 0 1-.306-.131c-.064-.032-.125-.062-.184-.102l-.045-.029-2.303-1.665c-.022-.018-.043-.031-.065-.046l-13.183-8.544a1.481 1.481 0 0 0-.463-.202c-.504-.127-1.075-.169-1.744-.132a1.28 1.28 0 0 0-.269.037c-.596.139-3.343.856-8.395 2.194l-.24.065a76.61 76.61 0 0 1-3.096.819l-3.257.863a1.486 1.486 0 0 0-.345.139 5.075 5.075 0 0 0-2.638 4.436 5.071 5.071 0 0 0 4.266 5.019Z" fill="#fff" fill-rule="evenodd" data-name="路径 82"/></svg>