<svg xmlns="http://www.w3.org/2000/svg" width="360" height="640.002" viewBox="1134.073 901.834 360 640.002"><g data-name="CompositeLayer"><path d="M1134.073 901.834h360v640.002h-360V901.834z" fill="#69bba9" fill-rule="evenodd" data-name="Rectangle 78"/><g data-name="Group 81"><path d="M1275.233 1241.307h3.6l4.527 8.271-.129-1.547v-6.724h3.564v14.34h-3.658l-4.434-8.142.094 1.783v6.359h-3.564v-14.34Z" fill="#fff" fill-rule="evenodd" data-name="Path 146"/><path d="M1300.824 1252.264v3.405c-.753.222-1.428.333-2.023.333-2.063 0-3.735-.707-5.016-2.122-1.282-1.414-1.923-3.275-1.923-5.58 0-2.142.647-3.908 1.941-5.302 1.294-1.393 2.928-2.089 4.904-2.089.769 0 1.474.093 2.117.28v3.415a6.653 6.653 0 0 0-1.929-.311c-.925 0-1.694.387-2.305 1.16-.612.774-.917 1.758-.917 2.954 0 1.289.307 2.308.923 3.057.615.748 1.436 1.122 2.464 1.122.502 0 1.089-.108 1.764-.322Z" fill="#fff" fill-rule="evenodd" data-name="Path 147"/><path d="M1305.537 1241.307h3.564v6.746h.059l3.363-6.746h3.741l-3.647 7.326 3.493 7.014h-3.916l-3.034-5.962h-.059v5.962h-3.564v-14.34Z" fill="#fff" fill-rule="evenodd" data-name="Path 148"/><path d="M1320.354 1241.307h3.658v10.097c0 .473.137.847.412 1.122.274.277.642.414 1.105.414.48 0 .857-.146 1.135-.44.278-.294.418-.698.418-1.214v-9.979h3.634v9.41c0 1.282-.185 2.309-.553 3.083-.368.773-.911 1.341-1.629 1.703-.718.361-1.72.542-3.005.542-1.897 0-3.234-.444-4.01-1.332-.777-.888-1.165-2.389-1.165-4.501v-8.905Z" fill="#fff" fill-rule="evenodd" data-name="Path 149"/><path d="M1336.347 1241.307h3.563v5.317h3.164v-5.317h3.564v14.34h-3.564v-5.962h-3.164v5.962h-3.563v-14.34Z" fill="#fff" fill-rule="evenodd" data-name="Path 150"/></g><g data-name="Group 82"><path d="M1272.266 1160.916c.691-1.976.691-3.261-.099-3.755-.692-.493-1.186-.493-1.58-.197-.397.395-.692.297-.594-.494.099-.692.494-1.285 1.087-1.779l2.074-.79c.89 0 1.977.395 3.261 1.186 1.976 1.383 3.063 2.865 3.261 4.545.098 1.284-.593 3.655-1.977 7.113-1.679 3.755-3.161 7.015-4.742 9.386l4.446 8.201c5.038 8.496 8.299 12.844 9.485 12.844.297 0 .691-.692 1.185-2.174.89-2.371 1.384-5.434 1.483-9.287l.197-.296.297.493 1.087 10.177c0 1.976.098 3.557.493 4.94l.89 5.237c.098.988 0 1.581-.297 1.778-.395.296-1.186 0-2.569-.79-6.817-3.755-13.634-12.548-20.352-26.183-4.645 5.039-10.078 7.509-16.006 7.114-.494 0-.692-.198-.791-.494 0-.296.198-.494.692-.692 5.532-2.667 9.979-7.015 13.14-12.646-3.359-7.311-5.928-13.734-7.706-19.365l-8.399 10.868c3.854.198 6.719.988 8.399 2.372.494.394.691.888.691 1.382l-.691 1.68c-1.581 2.568-3.063 5.632-4.545 9.09-1.778 4.347-3.458 7.311-4.841 9.188-2.767 3.161-4.743 4.742-5.929 4.742-.493 0-.987-.395-1.481-1.086-3.261-4.84-5.236-9.386-5.829-13.338-.693.494-1.186.395-1.68-.494l-1.185-3.063c-.989-2.865.098-5.039 3.359-6.126 6.916-4.051 13.239-11.065 18.476-21.143-3.261 2.173-7.411 5.137-12.45 9.089-.691.495-1.581.495-2.865.198-3.655-1.086-5.928-2.075-6.422-2.667l-.297 2.272c-2.272 6.818-2.964 12.844-2.172 18.179l.197 7.114c-.197 2.865-.79 5.335-1.779 7.509-.791 2.074-1.58 3.359-2.47 3.754-.692.395-1.284.494-1.68.297-.394-.099-.889-.79-1.58-2.174-1.877-3.261-2.668-8.102-2.47-14.524-.099-.197 0-.297.198-.197.494 0 .79.296.79.593.296 2.173.592 3.557 1.086 4.248l.989.79.79-1.58c.691-3.952.791-8.398.098-13.536v-.396c-.691-7.607-.197-13.733 1.286-18.08l1.58-5.039.395-1.185c.297-.099.79.494 1.383 1.581 1.78 3.359 3.063 6.224 3.459 8.595l.691-.395c3.162-1.186 5.829-2.767 8.003-4.742a49.923 49.923 0 0 1 12.547-8.2l-1.086-4.645c-2.965-10.176-5.137-13.733-6.62-10.769-.593 1.087-.889 1.186-.889.495v-2.174c.198-.989.692-1.581 1.482-1.877.79-.198 2.174.098 4.149.888 2.076.79 3.657 1.779 4.941 3.063 1.778 1.779 2.568 3.458 2.568 5.138 0 1.482.198 3.359.692 5.928 3.162.198 5.83.988 7.805 2.273 1.581.888 2.47 1.877 2.668 3.161.197 2.174-.593 3.557-2.371 4.149-1.384.396-3.162 1.878-5.039 3.953 2.174 6.62 4.446 12.547 6.817 17.981l2.866-7.212Zm-35.569 18.476c1.877 2.272 4.248 3.853 6.916 4.94l.99.296.887-.988c1.581-3.162 2.767-6.324 3.458-9.682.198-.593.099-1.087-.296-1.186l-1.383.296c-3.656 1.581-7.212 3.755-10.572 6.324Zm30.233-48.314c-.79-.691-1.186-1.383-1.086-2.075.098-.593.593-1.086 1.284-1.58 1.087-.593 2.47-.89 4.149-.89 3.952.099 6.62.692 7.806 1.778.889.593 1.68 2.372 2.371 5.138.691 2.37.593 3.755-.198 4.249-1.087.593-3.26-.198-6.521-2.174l-5.433-3.063-2.372-1.383Z" fill="#fff" fill-rule="evenodd" data-name="Path 151"/></g><g data-name="Group 83"><path d="M1311.334 1155.665c-.232-.465-.605-.79-1.022-1.022-.42-.233-.837-.28-1.163-.093-.604.372-.79.185-.557-.558.232-.884.743-1.534 1.487-1.859.418-.186 1.068-.186 1.952 0 .511.139 1.069.511 1.673 1.022l.093.093c1.069.977 1.441 3.067 1.116 6.182 1.719 1.999 3.3 2.881 4.601 2.742 1.906-.558 3.532-.372 4.741.604.557.418.975.976 1.208 1.766.232.977-.278 1.488-1.58 1.72-4.509.837-8.32 2.371-11.387 4.601l-1.394 4.602c-1.07 2.835-1.953 5.391-2.51 7.576-.93 2.417-2.51 4.09-4.649 4.88-2.835 1.022-5.344.744-7.342-.837l-.094-.278c.047-.14.094-.233.279-.186 1.069.139 2.045.093 2.975-.186 1.162-.326 2.137-.744 2.835-1.208 1.21-.977 2.974-4.649 5.252-10.923-2.091 1.441-3.578 2.092-4.37 1.859-1.161-.558-2.462-1.394-3.764-2.602-.79-.698-.79-1.163.094-1.302.928-.186 1.812-.511 2.509-.976 2.045-1.487 4.601-2.974 7.669-4.555 1.534-6.182 1.998-9.9 1.348-11.062Zm8.134 22.96c.975.372 2.091.884 3.207 1.581 4.09 1.998 6.414 3.997 6.925 5.855.418 2.604.464 3.998.046 4.184-.976.558-3.626-1.348-7.715-5.624-3.625-3.347-6.693-5.206-9.157-5.437-.836-.14-1.254-.373-1.208-.605-.046-.279.418-.465 1.3-.512 2.093-.464 4.324-.278 6.602.558Zm-4.787-17.708-.094.837-.511 2.835c1.069-.511 1.673-.93 1.766-1.208l.094-.605-1.255-1.859Z" fill="#fff" fill-rule="evenodd" data-name="Path 152"/></g><g data-name="Group 84"><path d="M1342.197 1182.906c-.165-.033-.23-.065-.263-.164l.427-.329a.777.777 0 0 1 .658-.098l.788.427c.624.624.886 1.116.854 1.412-.46 3.384-.592 5.224-.394 5.552l.394.264c.361.032.755.032 1.15-.067-.263-.624-.296-1.05-.132-1.149l.92-.953c-.164.066-.394 0-.657-.164l-1.085-.855-.196-.361.361-.164a4.894 4.894 0 0 0 1.873-.46l1.018-.394.164-.558-2.069.788c-.197.164-.395.132-.493-.033-.131-.23-.066-.394.164-.559.394-.098.756-.23 1.051-.46.296-.196.427-.328.395-.427l-1.019-.229c-.23.065-.361-.033-.394-.231-.263-.197-.296-.361-.13-.525-.1-.723.031-1.084.36-1.019.099-.033.362-.426.723-1.084l-1.774.494c-.164.065-.395 0-.624-.165l-1.052-.92-.164-.394c.033-.099.132-.132.361-.132.821-.032 1.544-.164 2.234-.427.591-.262 1.446-.493 2.53-.722 1.018-.231 1.774-.296 2.333-.263.656.032 1.084.23 1.281.559.197.262.23.59.131.886l-.296.131c-1.248.099-2.267.263-3.088.46h-.032l.131.165c.296.394.262.822-.099 1.183l-.328.328c.887-.296 1.675-.46 2.3-.525.558-.067.886.065 1.051.393l.361.855c.033.197-.066.296-.296.329a2.425 2.425 0 0 0-1.347.591l.231.296-.132.689.592-.066c.558 0 .985.165 1.215.461a.953.953 0 0 1 .197.821c-.032.098-.131.132-.296.132-1.478.196-2.563.46-3.219.754l-.23.395h.065c1.151.033 1.873.197 2.235.493.229.164.426.656.657 1.478l.131-.099c.23-.065.427-.032.657.099.46.263.821.657 1.117 1.117.164.263.23.46.197.624-.033.165-.361.197-.953.1-2.595-.395-5.026-.264-7.194.393-1.117.296-1.939.296-2.365 0-.132-.065-.296-.493-.526-1.281l-.098-1.052c.032-2.069.032-3.777-.067-5.157-.065-.756-.164-1.15-.295-1.183Zm12.615 11.597.493-.065c1.905 0 3.186.361 3.713 1.116.13.23.196.526.164.854-.099 1.019-.164 3.22-.164 6.57 0 1.414-.527 2.695-1.414 3.779l-.328.197-.23-.164-.723-.625c-.525-.361-.985-.854-1.412-1.38-1.709-.065-4.238.264-7.557.92l-.426-.099c-.033.395-.132.592-.231.625-.131.033-.36-.23-.722-.755-.559-.658-.788-1.216-.69-1.708.131-.888.197-2.333.197-4.337 0-1.61.46-2.957 1.446-3.943.098-.164.197-.197.262-.13a.244.244 0 0 1 0 .294c-.065.099-.131.592-.164 1.479.427-.492 1.183-.952 2.07-1.347l-.164-.953-.099-.624-2.989.592c-.165.032-.395-.067-.657-.296-.559-.493-.887-.887-1.052-1.15-.164-.23-.197-.394-.131-.493l.427-.098a13.388 13.388 0 0 0 4.763-.46c1.282-.395 3.088-.69 5.421-.92 2.201-.23 3.876-.23 4.993-.066.624.099 1.084.362 1.282.756a.67.67 0 0 1 .131.526l-.098.426-.296.099c-2.497-.033-4.533.033-6.242.23.329.295.46.69.427 1.15Zm-5.75 2.891a2.85 2.85 0 0 0-2.036.394c.131.92.099 2.989-.098 6.176.624-.032 1.248-.098 1.84-.263l1.51-.295.362-.23c.296-.198.427-.361.394-.46-.098-.1-.394-.131-.854-.1-.526.067-1.084-.031-1.643-.262-.591-.295-.689-.624-.263-1.018l2.333-.723c.362-.262.558-.427.526-.525-.164-.099-.46-.132-.92-.033-.526.098-1.117.033-1.708-.164-.691-.23-.821-.591-.395-1.02l.855-.262v-.46l.097-.755Zm1.315-8.016c-.361-.328-1.019-.756-1.971-1.216l-.165-.098-1.084 1.577c1.512-.296 2.661-.362 3.22-.263Zm.23 4.501v1.281c.887-.296 1.675-.46 2.234-.46l-.395-1.15-1.839.329Zm1.742 2.858c-.987.197-1.545.427-1.742.591v.887l1.643-.362c-.066-.328-.033-.69.099-1.116Zm1.642.854h.295c.526 0 .855.132.953.428l.23.853c.033.164-.066.263-.263.296l-1.084.493-1.61.821 1.545-.131c.492 0 .788.131.886.426l.198.789c.033.164-.034.263-.23.295l-.92.428-1.84.92c1.051-.099 1.872-.099 2.496 0 .527.032.92.263 1.151.689h.328l.263-.098c.131-.099.23-.263.262-.526.527-3.711.527-5.979 0-6.767-.164-.328-.459-.46-.853-.427l-1.413.23-.394 1.28Zm6.504-13.995c.724.427 1.117.854 1.117 1.182l-.229.33-.657 1.149-.954 1.445.56.329 1.149.887c1.051.427 1.84 1.183 2.267 2.234.296.854.328 1.478.131 1.807-.066.099-.23.065-.492-.132-1.151-.723-1.906-1.281-2.267-1.708a17.97 17.97 0 0 0-2.432-2.004l-.657.624c-.886.658-1.741.855-2.594.658-.723-.132-1.578-.855-2.596-2.004v-.198c.033-.065.098-.065.197 0l1.807.591c.69.165 1.445-.065 2.135-.689-2.135-1.216-3.417-1.742-3.745-1.577l-.69.459c-.196.231-.328.263-.361.099l.066-.393c.525-.724 1.281-1.052 2.168-.954-.033-.328-.033-.591.065-.821l.231-.394 2.004-.164 2.168-1.84-.592-.723c-.164-.197-.196-.756-.164-1.676l-.131-.098-1.577-.263-.164-.099.098-.164 1.15-.886c.756-.691 1.347-1.019 1.676-.986l.788.198c.722.689.92 1.412.756 2.069-.395.722-.559 1.216-.46 1.38.164.098.361.131.624.098.23-.033.525.033.886.263.362.197.527.427.592.723-.098.328-.23.493-.394.493s-.723.229-1.577.689l.098.066Zm-6.34-4.172c.164-.099.394 0 .723.229.821.723 1.281 1.38 1.347 1.84.033.231-.46 1.052-1.413 2.399-.427.69-.79.788-1.051.296-.493-.658-.427-1.578.197-2.596.164-.362.263-.723.197-1.051l-.132-.657c-.032-.198 0-.362.132-.46Zm2.399 6.734 1.576.691.624-.92v-.296c-.066-.099-.196-.099-.394 0l-1.806.525Z" fill="#fff" fill-rule="evenodd" data-name="Path 153"/><path d="M1380.825 1204.457c-.164.033-.393-.131-.821-.493-1.708-1.643-2.3-3.778-1.84-6.373.296-1.28.46-3.285.526-6.012.099-2.333.23-4.073.394-5.19.099-.559.23-.855.493-.855.164 0 .296.132.328.395.099.328.329.722.658 1.149.361.789.886 1.38 1.478 1.775.69.426 1.051.46 1.117.065.13-.263.066-.624-.164-1.019-.657-1.248-.953-2.398-.821-3.416v-.394c-.066-.066-.231-.099-.527-.066a6.499 6.499 0 0 1-2.069-.131c-.525-.132-.592-.328-.197-.559a10.154 10.154 0 0 0 2.464-2.562c.263-.658.985-.953 2.037-.887.854.065 1.38.263 1.577.591.23.427.263.789.164 1.117-.723 1.741-1.084 2.957-1.084 3.614l.492 2.3v-.066c.494-.822.822-1.544.953-2.037l.329-1.478c.131-.33.361-.231.722.328l.395.756c.624-.526 2.333-1.183 5.059-1.94l-1.117-.228-1.609-.165c-.231-.032-.329-.066-.296-.131 0-.066.065-.132.164-.132.689-.525 1.084-.952 1.084-1.183-.065-.59-.69-1.313-1.939-2.037-.13-.295-.098-.426.165-.393 1.379 0 2.497.197 3.252.624.789.46 1.315 1.051 1.511 1.741.165.559.165 1.05.033 1.479l-.065.098.92-.23 1.576-.296c.79-.196 1.939.296 3.45 1.478.394.329.591.592.492.789-.032.23-.328.427-.788.591-.525.198-1.149.56-1.97 1.151a25.42 25.42 0 0 1-2.892 1.674l.099.099c.164.263.164.493.033.723-.132.23-.329.361-.592.46-.756.262-1.38.591-1.905.985-.559.428-1.315.789-2.235 1.117-1.084.395-1.937.855-2.562 1.479l-.263.164v-.066c0-.591.559-1.248 1.741-1.97.198-.132.33-.264.33-.363l-1.38-1.773c-.395-.56-.362-.756.032-.624.854.361 2.102.065 3.713-.888.229-.196.558-.295.985-.295.46 0 .855.099 1.216.295.952-.689 1.708-1.477 2.103-2.201.23-.427.295-.755.164-.92-.034-.065-.231-.098-.494-.065-1.477.132-2.857.591-4.106 1.281-.591.329-1.019.525-1.183.525-1.248 0-2.135.296-2.661.789l-.492 1.479-.953 2.036c-.328.855-.624 1.02-.821.493l-.329-1.117c-.295 1.117-.755 2.103-1.379 2.957-.164.229-.33.361-.526.361-.23 0-.592-.558-1.052-1.609a19.763 19.763 0 0 1-1.182-2.366 40.873 40.873 0 0 1-.559 4.862c-.427 1.905-.689 3.614-.788 5.125-.066 1.117-.033 1.676.099 1.708.13 0 .295-.164.46-.427.985-1.806 1.674-3.909 1.97-6.274l.099-.164.132.229c.065 2.07-.231 5.453-.953 10.152-.099.23-.231.361-.395.361Zm9.725-1.38v-.032c-.526-1.281-.231-3.056.985-5.322l.92-2.169c.099-.362.065-.526-.164-.558l-.296.295c-1.84 2.2-4.468 4.501-7.72 6.866l-.329.099c-.098-.032-.131-.164-.131-.395.066-1.576.427-2.397 1.051-2.397.788-.197 1.972-1.216 3.581-3.023l.099-.197h-.231l-.788-.263c-.558-.361-1.182-.985-1.774-1.774-.196-.296-.263-.492-.164-.591.099-.098.394-.132.854-.098.493.032 1.084-.034 1.774-.165h.132c2.3-.558 3.613-1.281 3.942-2.201l.263-.361.689.065c.855.131 1.545.69 2.071 1.51.098.232.032.461-.198.724-.23.296-.46.428-.722.526l-.559.328h.065c.888.624 1.118 1.38.624 2.235-1.741 2.825-2.496 4.73-2.201 5.585.395.624.953.919 1.742.853 1.971-.131 3.679-.46 5.092-.92.362-.098.559-.229.591-.393.263-.165.559-1.479.855-3.877 0-.099.033-.132.13-.099.099 0 .132.033.132.132.066 1.51.328 3.285.855 5.321.098.329.098.559 0 .724-.033.164-.197.328-.559.459-1.938.724-4.829.854-8.542.428-1.018-.132-1.708-.592-2.069-1.315Z" fill="#fff" fill-rule="evenodd" data-name="Path 154"/></g><g data-name="Group 85"><path d="M1289.365 1280.564c-.223 1.139-.29 1.809-.223 2.055.067.2.201.335.469.358.715.088 1.43.156 2.1.245l-.692.804h-6.925l.916-.826 1.563-.223c.246-.023.424-.247.514-.693l2.033-9.383-1.653.76-.536-.469 4.467-2.524-2.033 9.896Z" fill="#fff" fill-rule="evenodd" data-name="Path 155"/><path d="M1305.698 1270.892c.38.177.67.513.871.937.38.649.56 1.43.56 2.323a13.6 13.6 0 0 1-.671 4.223c-.313.982-.827 1.921-1.52 2.859-.737.938-1.63 1.72-2.658 2.279-1.005.536-2.033.826-3.083.826a7.69 7.69 0 0 1-2.591-.424l1.43-1.832c.76.58 1.496.871 2.19.871a3.27 3.27 0 0 0 1.652-.447c.581-.313 1.095-.804 1.564-1.474.58-.848 1.005-1.72 1.25-2.614.135-.469.246-.916.336-1.385-.336.246-.626.47-.961.693-.982.692-1.898 1.028-2.748 1.028-.916 0-1.652-.291-2.233-.872-.447-.447-.67-1.139-.67-2.01 0-.671.156-1.341.469-2.033.335-.76 1.027-1.497 2.055-2.19 1.073-.715 2.211-1.072 3.373-1.072.559 0 1.028.112 1.385.314Zm-1.474 5.561c.312-.2.626-.401.961-.602.022-.313.044-.626.044-.939 0-.626-.134-1.14-.379-1.518-.247-.403-.493-.694-.828-.895-.312-.178-.692-.268-1.161-.268-.581 0-1.072.134-1.429.403-.358.222-.604.536-.805.871-.201.402-.313.871-.313 1.362 0 .76.224 1.341.626 1.698.379.358.893.537 1.541.537.447 0 1.028-.224 1.743-.649Z" fill="#fff" fill-rule="evenodd" data-name="Path 156"/><path d="M1310.459 1283.602c-.514-.469-.759-1.117-.759-1.988 0-.693.156-1.318.491-1.877.335-.536.782-1.005 1.408-1.318.893-.514 1.742-.96 2.613-1.43-.514-.491-.871-.937-1.027-1.273-.224-.379-.335-.759-.335-1.116 0-.604.201-1.206.602-1.832.425-.626.984-1.14 1.743-1.586a5.807 5.807 0 0 1 2.703-.648c.872 0 1.497.178 1.876.535.38.38.581.916.581 1.676 0 .559-.112 1.027-.357 1.43-.246.425-.626.737-1.072 1.027-.805.425-1.564.871-2.301 1.319.022 0 .022 0 .044.022.916.737 1.519 1.34 1.809 1.81.247.357.38.737.38 1.094a3.71 3.71 0 0 1-.625 2.077c-.402.67-1.094 1.296-2.055 1.832-1.05.648-2.234.938-3.507.938-.961 0-1.698-.245-2.212-.692Zm6.501-3.24c0-.446-.134-.826-.425-1.116-.29-.335-.804-.849-1.608-1.586-.045-.045-.089-.09-.134-.112-.357.201-.692.38-1.027.581-.65.357-1.163.76-1.497 1.161-.447.47-.67 1.072-.67 1.832 0 .536.267 1.006.781 1.363.357.29.872.424 1.474.424.65 0 1.296-.201 1.922-.625.782-.492 1.184-1.139 1.184-1.922Zm-2.212-6.388c0 .268.09.558.29.871.201.336.537.715.961 1.117a4.17 4.17 0 0 1 .76-.424c.447-.291.848-.603 1.162-.961.357-.447.535-.961.535-1.563a.998.998 0 0 0-.312-.715c-.268-.246-.67-.38-1.162-.38-.581 0-1.028.156-1.407.446-.536.47-.827 1.006-.827 1.609Z" fill="#fff" fill-rule="evenodd" data-name="Path 157"/><path d="M1323.865 1283.602c-.513-.469-.759-1.117-.759-1.988 0-.693.157-1.318.492-1.877.335-.536.781-1.005 1.407-1.318.893-.514 1.742-.96 2.613-1.43-.514-.491-.871-.937-1.027-1.273-.224-.379-.335-.759-.335-1.116 0-.604.201-1.206.602-1.832.425-.626.984-1.14 1.744-1.586a5.804 5.804 0 0 1 2.703-.648c.871 0 1.496.178 1.876.535.38.38.581.916.581 1.676 0 .559-.113 1.027-.358 1.43-.246.425-.626.737-1.072 1.027-.805.425-1.563.871-2.301 1.319.023 0 .023 0 .044.022.916.737 1.52 1.34 1.81 1.81.246.357.38.737.38 1.094 0 .738-.202 1.43-.625 2.077-.403.67-1.095 1.296-2.056 1.832-1.05.648-2.233.938-3.507.938-.961 0-1.698-.245-2.212-.692Zm6.501-3.24c0-.446-.134-.826-.425-1.116-.29-.335-.803-.849-1.608-1.586-.045-.045-.089-.09-.134-.112-.357.201-.692.38-1.027.581-.65.357-1.162.76-1.497 1.161-.447.47-.67 1.072-.67 1.832 0 .536.267 1.006.781 1.363.358.29.872.424 1.475.424.648 0 1.296-.201 1.922-.625.781-.492 1.183-1.139 1.183-1.922Zm-2.212-6.388c0 .268.09.558.29.871.201.336.537.715.961 1.117a4.17 4.17 0 0 1 .76-.424c.447-.291.849-.603 1.162-.961.358-.447.535-.961.535-1.563a.998.998 0 0 0-.312-.715c-.268-.246-.67-.38-1.161-.38-.581 0-1.029.156-1.408.446-.536.47-.827 1.006-.827 1.609Z" fill="#fff" fill-rule="evenodd" data-name="Path 158"/></g><g data-name="Group 86"><path d="M1352.744 1141.006c-3.186 1.321-6.15 2.888-9.489 3.399a17.91 17.91 0 0 1-3.99.155c-.639-.044-1.5.059-1.732-.68-.221-.702.48-1.191.931-1.66 1.304-1.36 2.971-2.06 4.743-2.568 2.756-.788 5.611-.982 8.433-1.38.359-.048.741-.025 1.08-.134.949-.31 1.068-1.22.979-1.944-.13-1.047-.981-.399-1.445-.29-2.595.609-5.171 1.29-7.828 1.637-5.874.768-9.139-1.388-10.546-7.148-.575-2.354-1.003-4.746-1.496-7.12-.126-.605-.165-1.135.355-1.666 1.91-1.949 3.706-4.011 5.653-5.922 3.811-3.742 7.784-3.866 11.764-.31 1.669 1.488 3.094 3.249 4.675 4.84.353.355.673 1.35 1.363.644.533-.548 1.179-1.371.289-2.225-1.005-.965-1.999-1.945-3.042-2.872-2.138-1.9-3.845-4.056-4.249-6.997-.218-1.581.183-1.9 1.689-1.338 2.27.846 3.852 2.492 5.03 4.544.935 1.63 1.783 3.31 2.684 4.962.373.684.659 1.52 1.752.935 1.116-.596.55-1.28.15-1.954-1.454-2.456-2.897-4.915-3.501-7.758-.724-3.414.248-6.024 3.158-7.848 2.671-1.677 5.444-3.19 8.157-4.799.543-.321.983-.324 1.504.018 1.996 1.317 4.27 2.024 6.444 2.953 5.866 2.502 7.445 6.507 4.751 12.319-.838 1.809-1.973 3.481-2.928 5.237-.318.585-.955 1.274.2 1.766.902.381 1.441.197 1.852-.738a82.609 82.609 0 0 1 2.504-5.254c1.016-1.937 2.488-3.439 4.595-4.207.609-.224 1.298-.668 1.877-.144.496.448.203 1.144.093 1.73-.411 2.152-1.443 3.973-2.979 5.522-1.24 1.251-2.485 2.494-3.705 3.761-.585.608-1.008 1.286-.195 2.032.957.883 1.235-.214 1.665-.645 1.072-1.072 2.014-2.278 3.122-3.304 4.516-4.18 9.905-4.024 14.218.333 1.665 1.683 3.005 3.667 4.848 5.18.419.346.505.758.424 1.295-.4 2.635-.699 5.287-1.146 7.914-.778 4.551-3.203 6.605-7.839 6.738-3.439.098-6.727-.773-10.03-1.585-.527-.13-1.394-.805-1.616.164-.175.761.353 1.46 1.334 1.634 2.566.452 5.136.908 7.681 1.478 2.14.482 4.23 1.156 5.816 2.811.447.468 1.125.963.851 1.682-.265.701-1.06.393-1.628.436-3.924.295-7.571-.697-11.07-2.403-.624-.305-1.169-.847-1.971-.816-.071 1.694.641 2.723 2.245 3.289 1.653.586 3.287 1.273 4.839 2.091 3.371 1.774 4.44 4.341 3.54 8.043-.484 1.98-1.564 3.673-2.541 5.42-.443.793-1.104 1.551-1.265 2.401-.479 2.538-1.976 3.307-4.42 3.345-2.351.038-4.682.686-7.037.805-3.608.182-5.644-1.266-6.955-4.654-.618-1.591-.997-3.244-1.205-4.938-.082-.661-.17-1.341-.4-1.957-.318-.848-1.135-.883-1.852-.753-.848.151-.456.865-.395 1.339.338 2.581.934 5.145.379 7.767-.302 1.431-.576 3.411-2.096 3.458-1.49.045-1.669-2.003-1.966-3.302-.584-2.559-.624-5.166-.241-7.778.15-1.005.198-2.013-1.355-1.913-.942.058-1.31.385-1.117 1.364.305 1.559.267 3.147.171 4.72-.254 4.14-2.583 6.415-6.728 6.652-3.182.182-6.264-.737-9.404-.863-2.155-.086-3.336-.836-4.03-2.962-.534-1.631-1.744-3.039-2.635-4.555-3.159-5.37-1.997-9.343 3.549-12.062 1.688-.827 3.411-1.588 5.127-2.351 1.191-.532 1.819-1.364 1.553-3.016Zm-.166 12.68c-.04 1.725 1.001.907 1.691.711 10.57-3.011 21.127-3.431 31.655.167 1.575.537 1.253-.312 1.086-1.206-1.776-9.468-3.578-18.93-5.285-28.414-.317-1.75-.901-1.911-2.369-1.124-6.517 3.499-13.033 3.363-19.401-.369-1.546-.907-1.928-.38-2.185 1.085-.953 5.49-1.973 10.974-2.956 16.459-.755 4.236-1.492 8.472-2.236 12.69Zm17.508-29.638c2.996-.019 5.78-.488 8.227-2.17.438-.3 1.326-.697.559-1.357-.847-.726-1.633-1.646-3.057-.381-3.512 3.118-9.409 2.95-12.637-.234-1.158-1.143-1.86-.132-2.419.415-.779.76.258 1.142.736 1.442 2.646 1.672 5.6 2.234 8.591 2.285Zm-2.36-11.045c0-.938.02-1.968-.011-2.998-.014-.429-.161-.88-.695-.913-.485-.032-.551.386-.609.743-.495 2.931-.823 5.875-.746 8.855.017.605.286 1.12.915 1.173.808.069.752-.621.788-1.152.125-1.871.237-3.743.358-5.708Zm3.766-.818c.131 2.307.237 4.485.388 6.663.03.468-.235 1.249.677 1.172.621-.055.984-.54.935-1.153a633.91 633.91 0 0 0-.774-9.233c-.031-.361-.223-.75-.677-.696-.439.052-.532.456-.541.827-.019.85-.008 1.698-.008 2.42Zm-1.271-2.621c-.225-.015-.446-.032-.668-.043-.098.2-.249.393-.283.603-.533 3.182-.211 6.393-.306 9.589-.013.439.129.9.705.842.545-.056.612-.531.61-.961-.008-1.815-.045-3.627-.056-5.44-.012-1.531-.002-3.061-.002-4.59Z" fill="#fff" fill-rule="evenodd" data-name="Path 159"/><path d="M1369.564 1147.551c-3.21 0-3.21 0-3.22-3.117-.01-2.74-.013-2.693-2.855-2.768-.956-.027-2.353.58-2.778-.623-.535-1.524-.408-3.224-.005-4.832.096-.386.532-.459.906-.486.363-.025.727-.03 1.089-.034 3.904-.032 3.696.447 3.614-3.601-.032-1.706.504-2.362 2.293-2.3 4.264.153 3.964-.491 3.912 3.9-.018 1.468.435 2.03 1.972 2.03 4.209 0 4.379.286 3.924 4.58-.104.989-.531 1.335-1.491 1.403-1.364.093-3.03-.62-4.022.404-.918.948-.288 2.56-.358 3.874-.133 2.433-2.008 1.234-2.981 1.57Z" fill="#fff" fill-rule="evenodd" data-name="Path 160"/></g></g></svg>