<svg xmlns="http://www.w3.org/2000/svg" width="110" height="110.125" viewBox="1573.878 1055.032 110 110.125"><g data-name="CompositeLayer"><path d="m1600.81 1140.63 28.068 24.527 43.2-.003s3.032-.129 4.693-1.019c1.662-.891 2.379-1.239 3.229-2.087.85-.848 1.801-2.002 2.083-2.472.282-.47.836-1.496 1.038-2.073.202-.577.633-1.974.694-2.91.06-.937.063-44.498.063-44.498l-22.927-19.1-15.5 2.338-44.64 47.297Z" fill="#5ba58f" fill-rule="evenodd" data-name="Path 258"/><path d="M1683.878 1153.376c0 6.506-5.372 11.781-12 11.781h-86c-6.628 0-12-5.275-12-11.781v-86.562c0-6.506 5.372-11.782 12-11.782h86c6.628 0 12 5.276 12 11.782v86.562Z" fill="#69bba9" fill-rule="evenodd" data-name="Path 257"/><path d="M1598.842 1126.88c.883-1.124 2.423-1.475 3.444-.785l4.629 3.132c1.022.691 1.136 2.162.255 3.286l-6.36 8.117c4.29.593 9.228-.887 13.227-4.379a19.364 19.364 0 0 0 2.527-2.669l.025-.027a8.32 8.32 0 0 0 1.21-1.806c.323-.642.531-1.32.655-1.981l.001-.002c.059-.466.136-.864.131-1.298.116-1.201.308-2.946.53-3.999.365-1.725 1.602-4.017 1.602-4.017l11.626-10.156.018.021 11.485-10.001s2.813-2.188 5.629-2.257a60.825 60.825 0 0 1 5.047.083l-.003-.002c1.37.115 2.84-.222 4.17-.963a8.305 8.305 0 0 0 2.159-1.727l.003-.003c5.423-5.019 7.147-12.3 4.408-17.501l-6.375 8.113c-.884 1.123-2.424 1.47-3.445.78l-4.625-3.14c-1.019-.692-1.131-2.163-.249-3.285l6.373-8.108c-4.29-.6-9.231.873-13.235 4.359a19.118 19.118 0 0 0-2.529 2.665 8.22 8.22 0 0 0-1.239 1.831 7.45 7.45 0 0 0-.66 1.982v.001c-.059.465-.136.863-.132 1.296-.119 1.202-.313 2.946-.537 3.999-.366 1.724-1.607 4.014-1.607 4.014l-11.653 10.15-.02-.022-11.468 10.018s-2.81 2.193-5.626 2.266c-2.815.074-5.047-.075-5.047-.075l.003.002c-1.37-.113-2.839.226-4.169.97a8.324 8.324 0 0 0-2.156 1.729l-.003.002c-5.416 5.029-7.128 12.312-4.38 17.51l6.361-8.123Z" fill="#fff" fill-rule="evenodd" data-name="Path 289"/><path d="m1604.003 1068.347.717.634 5.957 5.361c1.735 1.552 2.276 3.649 1.856 5.433l26.872 30.466-3.49 3.237-26.904-30.502c-1.792.223-3.822-.556-5.146-2.398l-4.419-6.743-.527-.809 5.084-4.679Z" fill="#fff" fill-rule="evenodd" data-name="Path 290"/><path d="m1638.15 1109.746 2.087-1.923c.49-.449 1.296-.408 1.846.216l.254.287c.03.035.045.085.072.122.01.014.012.032.022.046.016.024.03.051.046.075.01.017.018.034.029.051.013.021.023.042.034.063.011.019.022.039.031.058l.005.012c.031.06.057.121.078.182l.007.018c.011.031.021.062.029.094h0l.004.013a.875.875 0 0 1 .013.048l.03.036c.003.009.043.062.039.066l.289-.266c.275-.253.723-.255 1.032.095l20.437 23.202c2.43 2.759 2.748 6.776.588 8.764l-2.524 2.324c-2.16 1.988-6.017 1.231-8.447-1.528l-20.437-23.203c-.309-.351-.276-.791-.002-1.044l.418-.384.002-.002c-.01.009-.078-.051-.103-.06-.009-.005-.033-.025-.043-.029-.025-.011-.057-.03-.083-.043l-.039-.022c-.031-.016-.063-.036-.094-.054a1.632 1.632 0 0 1-.076-.048l-.045-.034-.064-.048a1.411 1.411 0 0 1-.109-.094c-.011-.01 0-.042-.01-.053-.033-.032-.043-.087-.073-.123l-.254-.286c-.517-.588-.575-1.288-.176-1.744l1.242-1.152.755-.695-.002-.003 3.178-2.95.014.016Z" stroke-linejoin="round" stroke-linecap="round" stroke="#fff" fill="transparent" data-name="Path 291"/><path d="M1661.308 1136.707c.613.696 1.566.843 2.112.34.546-.502.503-1.487-.11-2.183l-18.624-21.144c-.615-.697-1.568-.842-2.113-.339-.545.502-.503 1.486.111 2.183l18.624 21.143Z" stroke-linejoin="round" stroke-linecap="round" stroke="#fff" fill="transparent" data-name="Path 292"/><path d="M1656.804 1140.853c.614.697 1.536.871 2.082.37.545-.502.471-1.458-.143-2.156l-18.624-21.143c-.613-.696-1.535-.871-2.08-.369-.546.503-.472 1.458.142 2.154l18.623 21.144Z" stroke-linejoin="round" stroke-linecap="round" stroke="#fff" fill="transparent" data-name="Path 293"/><path d="m1625.899 1102.121 6.802 7.714.094.105-.566.456-6.902-7.815.572-.46Z" fill="#69bba9" fill-rule="evenodd" data-name="Path 294"/><path d="m1630.024 1098.527 6.802 7.714.094.106-.566.456-6.902-7.816.572-.46Z" fill="#69bba9" fill-rule="evenodd" data-name="Path 295"/></g></svg>