<?xml version="1.0" encoding="UTF-8"?>
<svg xmlns="http://www.w3.org/2000/svg" xmlns:xlink="http://www.w3.org/1999/xlink" width="96px" height="96px" viewBox="0 0 96 96" version="1.1">
<g id="surface1">
<path style=" stroke:none;fill-rule:evenodd;fill:rgb(41.176471%,73.333333%,66.27451%);fill-opacity:1;" d="M 96 85.828125 C 96 91.503906 91.3125 96.109375 85.527344 96.109375 L 10.472656 96.109375 C 4.6875 96.109375 0 91.503906 0 85.828125 L 0 10.28125 C 0 4.605469 4.6875 0 10.472656 0 L 85.527344 0 C 91.3125 0 96 4.605469 96 10.28125 Z M 96 85.828125 "/>
<path style=" stroke:none;fill-rule:evenodd;fill:rgb(100%,100%,100%);fill-opacity:1;" d="M 96 51.347656 C 96 57.132812 91.28125 61.820312 85.460938 61.820312 L 10.539062 61.820312 C 4.71875 61.820312 0 57.132812 0 51.347656 L 0 10.472656 C 0 4.6875 4.71875 0 10.539062 0 L 85.460938 0 C 91.28125 0 96 4.6875 96 10.472656 Z M 96 51.347656 "/>
<path style=" stroke:none;fill-rule:evenodd;fill:rgb(100%,100%,100%);fill-opacity:1;" d="M 22.046875 69.511719 C 22.402344 69.144531 22.753906 69.054688 23.101562 69.242188 C 23.398438 69.421875 23.699219 69.621094 23.996094 69.835938 C 24.390625 70.15625 24.457031 70.480469 24.191406 70.800781 C 23.894531 71.183594 23.890625 71.375 24.175781 71.375 L 25.015625 71.375 C 25.386719 71.375 25.570312 71.550781 25.570312 71.910156 L 25.570312 72.824219 C 25.570312 73.191406 25.390625 73.378906 25.035156 73.378906 L 21.167969 73.378906 C 20.882812 73.378906 20.746094 73.558594 20.757812 73.914062 C 20.851562 75.3125 21.042969 76.753906 21.328125 78.246094 C 21.390625 78.558594 21.527344 78.507812 21.742188 78.101562 C 22.238281 77.148438 22.667969 76.164062 23.03125 75.148438 C 23.160156 74.78125 23.40625 74.691406 23.761719 74.882812 L 24.640625 75.328125 C 25 75.53125 25.101562 75.8125 24.945312 76.167969 C 24.320312 77.800781 23.523438 79.363281 22.5625 80.824219 C 22.289062 81.207031 22.222656 81.574219 22.367188 81.933594 C 22.664062 82.566406 22.96875 82.960938 23.28125 83.113281 C 23.449219 83.125 23.574219 83.019531 23.65625 82.792969 C 23.777344 82.253906 23.828125 81.648438 23.816406 80.964844 C 23.816406 80.609375 23.996094 80.472656 24.355469 80.554688 L 25.445312 80.878906 C 25.828125 80.984375 26 81.210938 25.964844 81.558594 C 25.867188 82.46875 25.664062 83.363281 25.355469 84.222656 C 25.140625 84.796875 24.765625 85.207031 24.230469 85.460938 C 23.011719 85.996094 21.890625 85.4375 20.863281 83.777344 C 20.671875 83.417969 20.398438 83.402344 20.039062 83.722656 C 19.332031 84.359375 18.558594 84.914062 17.730469 85.386719 C 17.375 85.589844 17.09375 85.507812 16.890625 85.136719 L 16.605469 84.582031 C 16.390625 84.199219 16.449219 83.890625 16.785156 83.652344 C 17.714844 83.03125 18.578125 82.316406 19.359375 81.519531 C 19.636719 81.234375 19.71875 80.914062 19.609375 80.554688 C 19.183594 78.824219 18.855469 76.574219 18.625 73.808594 C 18.589844 73.519531 18.429688 73.378906 18.144531 73.378906 L 13.363281 73.378906 C 13.066406 73.378906 12.917969 73.519531 12.917969 73.808594 L 12.917969 75.007812 C 12.917969 75.304688 13.058594 75.453125 13.347656 75.453125 L 17.089844 75.453125 C 17.445312 75.453125 17.628906 75.632812 17.640625 75.992188 C 17.640625 78.53125 17.433594 80.667969 17.015625 82.398438 C 16.933594 82.910156 16.570312 83.3125 15.925781 83.597656 C 15.519531 83.789062 14.929688 83.792969 14.152344 83.617188 C 13.792969 83.484375 13.566406 83.238281 13.472656 82.882812 L 13.257812 81.949219 C 13.171875 81.558594 13.292969 81.421875 13.617188 81.539062 L 14.421875 81.699219 C 14.945312 81.785156 15.214844 81.582031 15.226562 81.09375 C 15.355469 80.113281 15.441406 79.046875 15.476562 77.886719 C 15.476562 77.601562 15.332031 77.457031 15.046875 77.457031 L 13.363281 77.457031 C 13.066406 77.457031 12.917969 77.601562 12.917969 77.886719 C 13.011719 80.324219 12.542969 82.714844 11.503906 85.066406 C 11.3125 85.4375 11.039062 85.519531 10.679688 85.316406 L 9.875 84.832031 C 9.515625 84.617188 9.425781 84.3125 9.605469 83.917969 C 10.488281 82 10.925781 79.941406 10.914062 77.746094 L 10.914062 71.929688 C 10.914062 71.558594 11.09375 71.375 11.449219 71.375 L 17.964844 71.375 C 18.25 71.375 18.394531 71.195312 18.394531 70.835938 C 18.359375 70.46875 18.339844 70.097656 18.339844 69.726562 C 18.316406 69.34375 18.476562 69.152344 18.824219 69.152344 L 19.96875 69.152344 C 20.339844 69.152344 20.53125 69.332031 20.542969 69.691406 C 20.53125 70.109375 20.535156 70.527344 20.558594 70.945312 C 20.582031 71.230469 20.738281 71.375 21.023438 71.375 L 22.082031 71.375 C 22.390625 71.375 22.367188 71.21875 22.007812 70.910156 C 21.941406 70.878906 21.882812 70.835938 21.832031 70.78125 C 21.449219 70.507812 21.40625 70.203125 21.707031 69.871094 C 21.835938 69.75 21.949219 69.632812 22.046875 69.511719 Z M 22.046875 69.511719 "/>
<path style=" stroke:none;fill-rule:evenodd;fill:rgb(100%,100%,100%);fill-opacity:1;" d="M 36.621094 69.726562 C 36.621094 69.34375 36.789062 69.152344 37.121094 69.152344 L 38.265625 69.152344 C 38.636719 69.152344 38.824219 69.332031 38.824219 69.691406 L 38.824219 72.644531 C 38.824219 72.941406 38.964844 73.089844 39.25 73.089844 L 44.960938 73.089844 C 45.332031 73.089844 45.515625 73.269531 45.515625 73.628906 L 45.515625 74.59375 C 45.515625 74.964844 45.335938 75.148438 44.980469 75.148438 L 39.84375 75.148438 C 39.554688 75.148438 39.464844 75.328125 39.574219 75.6875 C 39.882812 76.609375 40.261719 77.503906 40.703125 78.371094 C 42.0625 80.722656 43.691406 82.332031 45.585938 83.203125 C 45.945312 83.382812 46.03125 83.65625 45.839844 84.027344 L 45.28125 85.101562 C 45.082031 85.484375 44.800781 85.589844 44.441406 85.421875 C 42.320312 84.277344 40.578125 82.589844 39.214844 80.359375 C 38.847656 79.738281 38.519531 79.117188 38.230469 78.496094 C 38.101562 78.210938 37.945312 78.257812 37.765625 78.640625 C 36.488281 81.335938 34.359375 83.585938 31.378906 85.386719 C 31.007812 85.589844 30.683594 85.464844 30.410156 85.011719 C 30.25 84.78125 30.097656 84.542969 29.964844 84.296875 C 29.722656 83.9375 29.785156 83.652344 30.140625 83.4375 C 33.792969 81.21875 35.894531 78.597656 36.441406 75.578125 C 36.464844 75.292969 36.335938 75.148438 36.046875 75.148438 L 30.605469 75.148438 C 30.238281 75.148438 30.050781 74.972656 30.050781 74.613281 L 30.050781 73.648438 C 30.050781 73.277344 30.230469 73.089844 30.589844 73.089844 L 36.171875 73.089844 C 36.472656 73.089844 36.621094 72.949219 36.621094 72.664062 Z M 36.621094 69.726562 "/>
<path style=" stroke:none;fill-rule:evenodd;fill:rgb(100%,100%,100%);fill-opacity:1;" d="M 53.722656 81.09375 C 54.101562 80.816406 54.425781 80.839844 54.6875 81.164062 C 54.804688 81.355469 54.945312 81.546875 55.097656 81.734375 C 55.445312 82.179688 55.421875 82.542969 55.027344 82.828125 C 53.859375 83.628906 52.710938 84.261719 51.589844 84.726562 C 51.171875 84.890625 50.855469 84.78125 50.644531 84.386719 L 50.230469 83.597656 C 50.039062 83.226562 50.125 82.976562 50.480469 82.847656 C 51.621094 82.382812 52.707031 81.792969 53.722656 81.09375 Z M 62.867188 69.296875 C 63.238281 69.238281 63.515625 69.394531 63.707031 69.761719 L 64.082031 70.496094 C 64.285156 70.890625 64.179688 71.117188 63.761719 71.175781 C 62.140625 71.425781 60.234375 71.628906 58.050781 71.785156 C 57.730469 71.820312 57.480469 71.957031 57.300781 72.195312 L 55.902344 74.183594 C 55.652344 74.519531 55.683594 74.773438 55.996094 74.953125 L 56.546875 75.273438 C 56.835938 75.441406 57.152344 75.351562 57.496094 75.007812 C 58.242188 74.195312 58.957031 73.359375 59.644531 72.5 C 59.917969 72.15625 60.242188 72.054688 60.613281 72.195312 C 60.96875 72.339844 61.328125 72.5 61.683594 72.679688 C 62.054688 72.859375 62.097656 73.121094 61.8125 73.46875 C 60.855469 74.578125 59.714844 75.789062 58.390625 77.101562 C 58.046875 77.433594 58.082031 77.589844 58.5 77.566406 C 59.632812 77.53125 60.765625 77.472656 61.898438 77.386719 C 62.164062 77.363281 62.152344 77.15625 61.863281 76.761719 C 61.519531 76.320312 61.507812 75.992188 61.828125 75.777344 L 62.632812 75.292969 C 62.992188 75.078125 63.339844 75.167969 63.671875 75.5625 C 64.421875 76.507812 65.078125 77.527344 65.621094 78.605469 C 65.800781 78.960938 65.710938 79.253906 65.355469 79.480469 L 64.601562 79.945312 C 64.210938 80.199219 63.933594 80.160156 63.78125 79.839844 L 63.601562 79.480469 C 63.46875 79.242188 63.199219 79.136719 62.796875 79.160156 L 59.449219 79.445312 C 59.164062 79.480469 59.019531 79.640625 59.019531 79.929688 L 59.019531 85.066406 C 59.019531 85.4375 58.839844 85.621094 58.480469 85.621094 L 57.460938 85.621094 C 57.09375 85.621094 56.90625 85.441406 56.90625 85.082031 L 56.90625 80.070312 C 56.90625 79.785156 56.726562 79.648438 56.371094 79.660156 L 51.304688 79.910156 C 50.921875 79.933594 50.695312 79.726562 50.625 79.285156 C 50.566406 79.050781 50.523438 78.808594 50.5 78.566406 C 50.414062 78.128906 50.566406 77.902344 50.945312 77.886719 L 54.453125 77.746094 C 54.609375 77.734375 54.796875 77.625 55.007812 77.421875 C 55.222656 77.230469 55.148438 77.015625 54.777344 76.777344 C 53.832031 76.199219 52.878906 75.640625 51.914062 75.097656 C 51.519531 74.871094 51.441406 74.59375 51.679688 74.273438 L 52.144531 73.71875 C 52.46875 73.347656 52.789062 73.253906 53.113281 73.433594 C 53.457031 73.609375 53.761719 73.515625 54.023438 73.144531 C 54.21875 72.894531 54.398438 72.632812 54.5625 72.359375 C 54.753906 72.082031 54.675781 71.957031 54.328125 71.980469 L 51.929688 72.054688 C 51.574219 72.066406 51.328125 71.894531 51.199219 71.535156 C 51.089844 71.242188 51 70.941406 50.929688 70.640625 C 50.808594 70.28125 50.929688 70.089844 51.285156 70.066406 C 55.070312 70.066406 58.929688 69.808594 62.867188 69.296875 Z M 60.898438 81.109375 C 61.242188 80.742188 61.597656 80.691406 61.953125 80.964844 C 62.996094 81.699219 64.125 82.300781 65.320312 82.757812 C 65.699219 82.886719 65.796875 83.132812 65.605469 83.492188 L 65.015625 84.492188 C 64.800781 84.851562 64.5 84.945312 64.121094 84.78125 C 63.046875 84.289062 61.851562 83.519531 60.539062 82.46875 C 60.21875 82.195312 60.230469 81.863281 60.574219 81.46875 Z M 60.898438 81.109375 "/>
<path style=" stroke:none;fill-rule:evenodd;fill:rgb(100%,100%,100%);fill-opacity:1;" d="M 70.175781 80.035156 C 70.222656 79.667969 70.421875 79.523438 70.765625 79.605469 L 71.605469 79.820312 C 71.964844 79.929688 72.121094 80.160156 72.074219 80.519531 C 71.902344 81.617188 71.703125 82.707031 71.484375 83.792969 C 71.398438 84.152344 71.179688 84.269531 70.820312 84.152344 L 70.121094 83.917969 C 69.742188 83.789062 69.585938 83.527344 69.65625 83.132812 C 69.859375 82.105469 70.03125 81.074219 70.175781 80.035156 Z M 72.484375 69.582031 C 72.652344 69.203125 72.90625 69.089844 73.253906 69.242188 C 73.539062 69.351562 73.828125 69.476562 74.113281 69.621094 C 74.472656 69.785156 74.554688 70.0625 74.363281 70.441406 C 73.929688 71.246094 73.484375 72.039062 73.019531 72.824219 C 72.855469 73.097656 72.855469 73.289062 73.019531 73.394531 C 73.199219 73.503906 73.390625 73.390625 73.59375 73.054688 L 74.183594 71.875 C 74.363281 71.515625 74.644531 71.414062 75.027344 71.570312 C 75.265625 71.652344 75.503906 71.753906 75.742188 71.875 C 76.183594 72.066406 76.296875 72.347656 76.082031 72.714844 C 75.570312 73.648438 74.890625 74.773438 74.042969 76.097656 C 73.875 76.382812 73.957031 76.515625 74.292969 76.492188 C 74.601562 76.457031 74.726562 76.289062 74.667969 75.992188 C 74.5625 75.691406 74.6875 75.496094 75.042969 75.402344 L 75.722656 75.222656 C 76.082031 75.148438 76.320312 75.292969 76.441406 75.652344 C 76.65625 76.378906 76.828125 77.113281 76.957031 77.851562 C 77.019531 78.257812 76.839844 78.515625 76.421875 78.621094 L 75.722656 78.800781 C 75.367188 78.910156 75.164062 78.824219 75.117188 78.550781 C 75.09375 78.300781 74.953125 78.191406 74.703125 78.230469 C 74.488281 78.277344 74.382812 78.441406 74.382812 78.730469 L 74.382812 85.066406 C 74.382812 85.4375 74.203125 85.621094 73.84375 85.621094 L 72.949219 85.621094 C 72.582031 85.621094 72.394531 85.441406 72.394531 85.082031 L 72.394531 78.980469 C 72.394531 78.695312 72.214844 78.5625 71.859375 78.585938 L 70.730469 78.695312 C 70.347656 78.730469 70.121094 78.527344 70.050781 78.085938 L 69.90625 77.367188 C 69.835938 77.011719 69.980469 76.816406 70.335938 76.777344 L 70.839844 76.742188 C 71.125 76.730469 71.394531 76.558594 71.644531 76.222656 C 71.738281 76.105469 71.816406 75.984375 71.875 75.867188 C 72.101562 75.484375 72.050781 75.167969 71.714844 74.917969 L 70.285156 73.878906 C 69.867188 73.59375 69.78125 73.292969 70.03125 72.984375 C 70.152344 72.863281 70.253906 72.746094 70.335938 72.625 C 70.660156 72.246094 70.851562 72.066406 70.910156 72.089844 C 71.027344 72.148438 71.160156 72.058594 71.304688 71.820312 C 71.769531 71.023438 72.164062 70.277344 72.484375 69.582031 Z M 75.167969 79.480469 L 75.847656 79.300781 C 76.207031 79.21875 76.445312 79.355469 76.566406 79.714844 C 76.792969 80.597656 76.949219 81.382812 77.03125 82.078125 C 77.089844 82.542969 76.941406 82.816406 76.582031 82.898438 C 76.308594 82.949219 76.035156 83.011719 75.757812 83.097656 C 75.367188 83.191406 75.152344 83.039062 75.117188 82.632812 C 75.035156 81.800781 74.902344 80.976562 74.722656 80.160156 C 74.636719 79.804688 74.789062 79.578125 75.167969 79.480469 Z M 80.46875 69.726562 C 80.46875 69.34375 80.632812 69.152344 80.96875 69.152344 L 81.988281 69.152344 C 82.359375 69.152344 82.542969 69.332031 82.542969 69.691406 L 82.542969 70.515625 C 82.542969 70.8125 82.6875 70.960938 82.972656 70.960938 L 85.585938 70.960938 C 85.957031 70.960938 86.140625 71.140625 86.140625 71.5 L 86.140625 72.304688 C 86.140625 72.671875 85.960938 72.859375 85.601562 72.859375 L 81.898438 72.859375 C 81.613281 72.859375 81.398438 73.039062 81.253906 73.394531 C 81.027344 74.101562 80.777344 74.707031 80.503906 75.222656 C 80.382812 75.484375 80.519531 75.589844 80.914062 75.542969 L 82.882812 75.328125 C 83.167969 75.28125 83.234375 75.078125 83.082031 74.71875 L 83.007812 74.542969 C 82.804688 74.160156 82.882812 73.910156 83.242188 73.789062 L 84.082031 73.558594 C 84.441406 73.449219 84.722656 73.574219 84.921875 73.933594 C 85.507812 75.101562 85.929688 76.183594 86.195312 77.171875 C 86.289062 77.53125 86.160156 77.773438 85.800781 77.90625 C 85.496094 77.980469 85.199219 78.070312 84.90625 78.175781 C 84.5 78.304688 84.242188 78.175781 84.136719 77.78125 C 84.136719 77.707031 84.117188 77.632812 84.082031 77.566406 C 84 77.230469 83.898438 77.078125 83.777344 77.101562 C 83.621094 77.136719 83.546875 77.296875 83.546875 77.582031 L 83.546875 82.847656 C 83.484375 83.585938 83.789062 83.777344 84.457031 83.417969 C 84.660156 83.179688 84.773438 82.683594 84.796875 81.933594 C 84.835938 81.503906 85.042969 81.390625 85.425781 81.59375 C 85.617188 81.6875 85.804688 81.800781 85.996094 81.933594 C 86.378906 82.160156 86.539062 82.453125 86.480469 82.808594 C 86.417969 83.28125 86.332031 83.746094 86.210938 84.207031 C 86.042969 84.875 85.710938 85.257812 85.210938 85.351562 C 84.089844 85.554688 83.164062 85.519531 82.4375 85.246094 C 81.898438 85.019531 81.605469 84.460938 81.558594 83.582031 L 81.558594 77.871094 C 81.558594 77.582031 81.386719 77.453125 81.039062 77.476562 C 80.691406 77.523438 80.515625 77.734375 80.503906 78.101562 C 80.46875 79.84375 80.289062 81.277344 79.964844 82.398438 C 79.597656 83.414062 78.964844 84.332031 78.070312 85.15625 C 77.613281 85.523438 77.269531 85.519531 77.03125 85.136719 L 76.671875 84.566406 C 76.398438 84.148438 76.492188 83.71875 76.957031 83.277344 C 77.335938 82.835938 77.660156 82.355469 77.925781 81.84375 C 78.285156 81.007812 78.480469 79.792969 78.515625 78.191406 C 78.527344 77.90625 78.355469 77.78125 77.996094 77.816406 L 77.816406 77.835938 C 77.460938 77.882812 77.238281 77.726562 77.15625 77.367188 L 76.976562 76.4375 C 76.90625 76.070312 77.058594 75.871094 77.441406 75.847656 C 77.859375 75.824219 78.132812 75.691406 78.265625 75.453125 C 78.597656 74.785156 78.902344 74.113281 79.179688 73.433594 C 79.308594 73.050781 79.230469 72.859375 78.945312 72.859375 L 77.371094 72.859375 C 77 72.859375 76.816406 72.679688 76.816406 72.320312 L 76.816406 71.515625 C 76.816406 71.144531 76.996094 70.960938 77.351562 70.960938 L 80.019531 70.960938 C 80.316406 70.960938 80.46875 70.820312 80.46875 70.53125 Z M 80.46875 69.726562 "/>
<path style=" stroke:none;fill-rule:evenodd;fill:rgb(41.176471%,73.333333%,66.27451%);fill-opacity:1;" d="M 35.007812 37.753906 C 32.601562 38.753906 30.359375 39.9375 27.835938 40.324219 C 26.835938 40.476562 25.824219 40.515625 24.820312 40.441406 C 24.335938 40.40625 23.6875 40.488281 23.511719 39.925781 C 23.34375 39.398438 23.875 39.027344 24.214844 38.675781 C 25.199219 37.644531 26.460938 37.117188 27.800781 36.730469 C 29.882812 36.136719 32.042969 35.988281 34.175781 35.6875 C 34.445312 35.652344 34.734375 35.671875 34.992188 35.585938 C 35.707031 35.351562 35.796875 34.664062 35.730469 34.117188 C 35.632812 33.324219 34.988281 33.816406 34.636719 33.898438 C 32.675781 34.359375 30.726562 34.875 28.722656 35.136719 C 24.28125 35.714844 21.8125 34.085938 20.75 29.734375 C 20.316406 27.953125 19.992188 26.148438 19.617188 24.351562 C 19.523438 23.894531 19.492188 23.492188 19.886719 23.09375 C 21.332031 21.621094 22.6875 20.058594 24.160156 18.617188 C 27.042969 15.789062 30.042969 15.695312 33.054688 18.382812 C 34.3125 19.507812 35.390625 20.839844 36.585938 22.039062 C 36.851562 22.308594 37.09375 23.058594 37.617188 22.527344 C 38.019531 22.113281 38.507812 21.492188 37.835938 20.84375 C 37.074219 20.117188 36.324219 19.375 35.535156 18.671875 C 33.917969 17.238281 32.628906 15.609375 32.324219 13.386719 C 32.160156 12.191406 32.460938 11.949219 33.601562 12.375 C 35.316406 13.015625 36.511719 14.257812 37.402344 15.808594 C 38.109375 17.039062 38.75 18.3125 39.429688 19.558594 C 39.710938 20.078125 39.929688 20.707031 40.753906 20.265625 C 41.597656 19.816406 41.171875 19.296875 40.867188 18.789062 C 39.769531 16.933594 38.679688 15.074219 38.222656 12.925781 C 37.675781 10.34375 38.410156 8.371094 40.609375 6.992188 C 42.628906 5.726562 44.726562 4.582031 46.773438 3.367188 C 47.1875 3.121094 47.519531 3.121094 47.910156 3.378906 C 49.421875 4.375 51.140625 4.910156 52.78125 5.613281 C 57.214844 7.503906 58.410156 10.53125 56.371094 14.921875 C 55.738281 16.289062 54.882812 17.554688 54.160156 18.882812 C 53.917969 19.324219 53.4375 19.84375 54.3125 20.214844 C 54.992188 20.503906 55.402344 20.363281 55.710938 19.65625 C 56.296875 18.3125 56.925781 16.988281 57.601562 15.6875 C 58.371094 14.222656 59.484375 13.085938 61.078125 12.507812 C 61.539062 12.339844 62.058594 12 62.496094 12.398438 C 62.871094 12.738281 62.648438 13.265625 62.566406 13.707031 C 62.257812 15.332031 61.476562 16.710938 60.316406 17.878906 C 59.378906 18.824219 58.4375 19.765625 57.515625 20.722656 C 57.070312 21.183594 56.753906 21.695312 57.367188 22.257812 C 58.089844 22.925781 58.300781 22.097656 58.625 21.769531 C 59.433594 20.960938 60.148438 20.050781 60.984375 19.273438 C 64.398438 16.113281 68.472656 16.234375 71.730469 19.527344 C 72.992188 20.796875 74.003906 22.296875 75.398438 23.441406 C 75.710938 23.703125 75.777344 24.015625 75.714844 24.417969 C 75.414062 26.410156 75.1875 28.414062 74.851562 30.402344 C 74.261719 33.839844 72.429688 35.394531 68.925781 35.496094 C 66.328125 35.570312 63.839844 34.910156 61.34375 34.296875 C 60.945312 34.199219 60.292969 33.6875 60.121094 34.421875 C 59.992188 34.996094 60.390625 35.523438 61.128906 35.65625 C 63.070312 35.996094 65.015625 36.34375 66.9375 36.773438 C 68.554688 37.136719 70.136719 37.648438 71.332031 38.898438 C 71.671875 39.25 72.183594 39.625 71.976562 40.167969 C 71.777344 40.699219 71.175781 40.464844 70.746094 40.496094 C 67.78125 40.71875 65.023438 39.972656 62.378906 38.683594 C 61.90625 38.453125 61.492188 38.042969 60.886719 38.066406 C 60.835938 39.347656 61.371094 40.125 62.585938 40.550781 C 63.839844 40.988281 65.0625 41.519531 66.242188 42.132812 C 68.789062 43.472656 69.597656 45.414062 68.917969 48.210938 C 68.550781 49.707031 67.738281 50.988281 67 52.308594 C 66.664062 52.90625 66.164062 53.480469 66.042969 54.125 C 65.679688 56.042969 64.546875 56.621094 62.699219 56.652344 C 60.925781 56.679688 59.164062 57.167969 57.382812 57.257812 C 54.65625 57.398438 53.117188 56.304688 52.125 53.742188 C 51.660156 52.539062 51.371094 51.289062 51.214844 50.007812 C 51.152344 49.507812 51.085938 48.996094 50.910156 48.53125 C 50.671875 47.890625 50.054688 47.863281 49.511719 47.960938 C 48.871094 48.074219 49.167969 48.613281 49.214844 48.972656 C 49.46875 50.925781 49.917969 52.863281 49.5 54.84375 C 49.273438 55.925781 49.0625 57.421875 47.917969 57.457031 C 46.789062 57.492188 46.65625 55.945312 46.429688 54.960938 C 45.988281 53.027344 45.957031 51.058594 46.246094 49.082031 C 46.359375 48.324219 46.394531 47.5625 45.222656 47.636719 C 44.511719 47.679688 44.234375 47.925781 44.378906 48.667969 C 44.609375 49.847656 44.582031 51.046875 44.507812 52.234375 C 44.316406 55.363281 42.554688 57.085938 39.421875 57.261719 C 37.019531 57.402344 34.6875 56.707031 32.316406 56.609375 C 30.6875 56.546875 29.792969 55.980469 29.269531 54.371094 C 28.867188 53.140625 27.949219 52.074219 27.277344 50.929688 C 24.890625 46.871094 25.765625 43.867188 29.960938 41.8125 C 31.234375 41.1875 32.539062 40.613281 33.835938 40.035156 C 34.734375 39.632812 35.210938 39.003906 35.007812 37.753906 Z M 34.882812 47.339844 C 34.851562 48.644531 35.640625 48.023438 36.160156 47.875 C 44.152344 45.601562 52.128906 45.285156 60.089844 48.003906 C 61.277344 48.410156 61.035156 47.765625 60.910156 47.09375 C 59.566406 39.933594 58.203125 32.78125 56.914062 25.617188 C 56.675781 24.292969 56.234375 24.171875 55.125 24.765625 C 50.199219 27.410156 45.273438 27.308594 40.457031 24.488281 C 39.289062 23.800781 39.003906 24.199219 38.808594 25.304688 C 38.085938 29.457031 37.316406 33.601562 36.574219 37.746094 C 36.003906 40.949219 35.445312 44.152344 34.882812 47.339844 Z M 48.117188 24.9375 C 50.378906 24.921875 52.484375 24.566406 54.335938 23.296875 C 54.664062 23.070312 55.335938 22.769531 54.757812 22.269531 C 54.117188 21.722656 53.523438 21.027344 52.445312 21.984375 C 49.792969 24.339844 45.335938 24.214844 42.894531 21.808594 C 42.019531 20.941406 41.488281 21.707031 41.066406 22.121094 C 40.476562 22.695312 41.261719 22.984375 41.621094 23.210938 C 43.621094 24.476562 45.855469 24.898438 48.117188 24.9375 Z M 46.332031 16.589844 C 46.332031 15.878906 46.347656 15.101562 46.324219 14.324219 C 46.3125 14 46.203125 13.65625 45.800781 13.632812 C 45.433594 13.609375 45.382812 13.925781 45.339844 14.195312 C 44.964844 16.410156 44.71875 18.636719 44.773438 20.886719 C 44.789062 21.34375 44.992188 21.734375 45.464844 21.773438 C 46.078125 21.824219 46.035156 21.304688 46.0625 20.902344 C 46.15625 19.488281 46.242188 18.074219 46.332031 16.589844 Z M 49.179688 15.972656 C 49.277344 17.714844 49.359375 19.363281 49.472656 21.007812 C 49.492188 21.363281 49.296875 21.949219 49.984375 21.890625 C 50.453125 21.851562 50.730469 21.484375 50.691406 21.019531 C 50.515625 18.695312 50.316406 16.367188 50.105469 14.042969 C 50.082031 13.769531 49.9375 13.476562 49.59375 13.515625 C 49.261719 13.554688 49.191406 13.859375 49.183594 14.140625 C 49.171875 14.785156 49.179688 15.425781 49.179688 15.972656 Z M 48.21875 13.988281 C 48.050781 13.976562 47.882812 13.964844 47.710938 13.957031 C 47.640625 14.109375 47.527344 14.253906 47.5 14.414062 C 47.097656 16.816406 47.339844 19.246094 47.269531 21.660156 C 47.257812 21.992188 47.367188 22.34375 47.800781 22.296875 C 48.214844 22.253906 48.261719 21.894531 48.261719 21.570312 C 48.257812 20.199219 48.226562 18.828125 48.21875 17.457031 C 48.210938 16.300781 48.21875 15.144531 48.21875 13.988281 Z M 48.21875 13.988281 "/>
<path style=" stroke:none;fill-rule:evenodd;fill:rgb(41.176471%,73.333333%,66.27451%);fill-opacity:1;" d="M 47.722656 42.703125 C 45.296875 42.703125 45.296875 42.703125 45.289062 40.34375 C 45.28125 38.277344 45.277344 38.3125 43.128906 38.253906 C 42.40625 38.234375 41.351562 38.691406 41.03125 37.78125 C 40.625 36.632812 40.722656 35.347656 41.027344 34.128906 C 41.097656 33.839844 41.429688 33.785156 41.710938 33.765625 C 41.984375 33.746094 42.261719 33.742188 42.535156 33.738281 C 45.484375 33.714844 45.328125 34.074219 45.265625 31.015625 C 45.242188 29.726562 45.648438 29.230469 47 29.277344 C 50.222656 29.394531 49.996094 28.90625 49.957031 32.226562 C 49.941406 33.335938 50.285156 33.761719 51.449219 33.761719 C 54.628906 33.757812 54.757812 33.976562 54.414062 37.222656 C 54.335938 37.96875 54.011719 38.230469 53.285156 38.28125 C 52.253906 38.351562 50.996094 37.8125 50.246094 38.585938 C 49.550781 39.304688 50.027344 40.523438 49.976562 41.515625 C 49.875 43.355469 48.457031 42.449219 47.722656 42.703125 Z M 47.722656 42.703125 "/>
</g>
</svg>
